<?xml version="1.0" encoding="utf-8" standalone="no"?>
<!DOCTYPE svg PUBLIC "-//W3C//DTD SVG 1.1//EN"
  "http://www.w3.org/Graphics/SVG/1.1/DTD/svg11.dtd">
<svg xmlns:xlink="http://www.w3.org/1999/xlink" width="460.8pt" height="345.6pt" viewBox="0 0 460.8 345.6" xmlns="http://www.w3.org/2000/svg" version="1.1">
 <metadata>
  <rdf:RDF xmlns:dc="http://purl.org/dc/elements/1.1/" xmlns:cc="http://creativecommons.org/ns#" xmlns:rdf="http://www.w3.org/1999/02/22-rdf-syntax-ns#">
   <cc:Work>
    <dc:type rdf:resource="http://purl.org/dc/dcmitype/StillImage"/>
    <dc:date>2023-04-29T11:46:11.485776</dc:date>
    <dc:format>image/svg+xml</dc:format>
    <dc:creator>
     <cc:Agent>
      <dc:title>Matplotlib v3.7.1, https://matplotlib.org/</dc:title>
     </cc:Agent>
    </dc:creator>
   </cc:Work>
  </rdf:RDF>
 </metadata>
 <defs>
  <style type="text/css">*{stroke-linejoin: round; stroke-linecap: butt}</style>
 </defs>
 <g id="figure_1">
  <g id="patch_1">
   <path d="M 0 345.6 
L 460.8 345.6 
L 460.8 0 
L 0 0 
z
" style="fill: #ffffff"/>
  </g>
  <g id="axes_1">
   <g id="patch_2">
    <path d="M 57.6 307.584 
L 414.72 307.584 
L 414.72 41.472 
L 57.6 41.472 
z
" style="fill: #ffffff"/>
   </g>
   <g id="PathCollection_1">
    <defs>
     <path id="m14528906b4" d="M 0 3 
C 0.795609 3 1.55874 2.683901 2.12132 2.12132 
C 2.683901 1.55874 3 0.795609 3 0 
C 3 -0.795609 2.683901 -1.55874 2.12132 -2.12132 
C 1.55874 -2.683901 0.795609 -3 0 -3 
C -0.795609 -3 -1.55874 -2.683901 -2.12132 -2.12132 
C -2.683901 -1.55874 -3 -0.795609 -3 0 
C -3 0.795609 -2.683901 1.55874 -2.12132 2.12132 
C -1.55874 2.683901 -0.795609 3 0 3 
z
" style="stroke: #1f77b4"/>
    </defs>
    <g clip-path="url(#pd7881fd62d)">
     <use xlink:href="#m14528906b4" x="73.832727" y="295.488" style="fill: #1f77b4; stroke: #1f77b4"/>
     <use xlink:href="#m14528906b4" x="77.112066" y="294.065867" style="fill: #1f77b4; stroke: #1f77b4"/>
     <use xlink:href="#m14528906b4" x="80.391405" y="292.629368" style="fill: #1f77b4; stroke: #1f77b4"/>
     <use xlink:href="#m14528906b4" x="83.670744" y="291.178351" style="fill: #1f77b4; stroke: #1f77b4"/>
     <use xlink:href="#m14528906b4" x="86.950083" y="289.712681" style="fill: #1f77b4; stroke: #1f77b4"/>
     <use xlink:href="#m14528906b4" x="90.229421" y="288.232209" style="fill: #1f77b4; stroke: #1f77b4"/>
     <use xlink:href="#m14528906b4" x="93.508761" y="286.736782" style="fill: #1f77b4; stroke: #1f77b4"/>
     <use xlink:href="#m14528906b4" x="96.788098" y="285.226249" style="fill: #1f77b4; stroke: #1f77b4"/>
     <use xlink:href="#m14528906b4" x="100.067438" y="283.700461" style="fill: #1f77b4; stroke: #1f77b4"/>
     <use xlink:href="#m14528906b4" x="103.346778" y="282.159248" style="fill: #1f77b4; stroke: #1f77b4"/>
     <use xlink:href="#m14528906b4" x="106.626115" y="280.602477" style="fill: #1f77b4; stroke: #1f77b4"/>
     <use xlink:href="#m14528906b4" x="109.905455" y="279.029979" style="fill: #1f77b4; stroke: #1f77b4"/>
     <use xlink:href="#m14528906b4" x="113.184795" y="277.441604" style="fill: #1f77b4; stroke: #1f77b4"/>
     <use xlink:href="#m14528906b4" x="116.464132" y="275.837184" style="fill: #1f77b4; stroke: #1f77b4"/>
     <use xlink:href="#m14528906b4" x="119.743469" y="274.21655" style="fill: #1f77b4; stroke: #1f77b4"/>
     <use xlink:href="#m14528906b4" x="123.022811" y="272.579553" style="fill: #1f77b4; stroke: #1f77b4"/>
     <use xlink:href="#m14528906b4" x="126.302149" y="270.926007" style="fill: #1f77b4; stroke: #1f77b4"/>
     <use xlink:href="#m14528906b4" x="129.581486" y="269.255761" style="fill: #1f77b4; stroke: #1f77b4"/>
     <use xlink:href="#m14528906b4" x="132.860828" y="267.568648" style="fill: #1f77b4; stroke: #1f77b4"/>
     <use xlink:href="#m14528906b4" x="136.140166" y="265.864499" style="fill: #1f77b4; stroke: #1f77b4"/>
     <use xlink:href="#m14528906b4" x="139.419503" y="264.14313" style="fill: #1f77b4; stroke: #1f77b4"/>
     <use xlink:href="#m14528906b4" x="142.698845" y="262.404373" style="fill: #1f77b4; stroke: #1f77b4"/>
     <use xlink:href="#m14528906b4" x="145.978182" y="260.64806" style="fill: #1f77b4; stroke: #1f77b4"/>
     <use xlink:href="#m14528906b4" x="149.25752" y="258.874007" style="fill: #1f77b4; stroke: #1f77b4"/>
     <use xlink:href="#m14528906b4" x="152.536862" y="257.082029" style="fill: #1f77b4; stroke: #1f77b4"/>
     <use xlink:href="#m14528906b4" x="155.816194" y="255.271958" style="fill: #1f77b4; stroke: #1f77b4"/>
     <use xlink:href="#m14528906b4" x="159.095537" y="253.443593" style="fill: #1f77b4; stroke: #1f77b4"/>
     <use xlink:href="#m14528906b4" x="162.374879" y="251.596766" style="fill: #1f77b4; stroke: #1f77b4"/>
     <use xlink:href="#m14528906b4" x="165.654211" y="249.731275" style="fill: #1f77b4; stroke: #1f77b4"/>
     <use xlink:href="#m14528906b4" x="168.933553" y="247.846954" style="fill: #1f77b4; stroke: #1f77b4"/>
     <use xlink:href="#m14528906b4" x="172.212895" y="245.943599" style="fill: #1f77b4; stroke: #1f77b4"/>
     <use xlink:href="#m14528906b4" x="175.492228" y="244.02101" style="fill: #1f77b4; stroke: #1f77b4"/>
     <use xlink:href="#m14528906b4" x="178.77157" y="242.079003" style="fill: #1f77b4; stroke: #1f77b4"/>
     <use xlink:href="#m14528906b4" x="182.050912" y="240.117375" style="fill: #1f77b4; stroke: #1f77b4"/>
     <use xlink:href="#m14528906b4" x="185.330245" y="238.135943" style="fill: #1f77b4; stroke: #1f77b4"/>
     <use xlink:href="#m14528906b4" x="188.609587" y="236.134488" style="fill: #1f77b4; stroke: #1f77b4"/>
     <use xlink:href="#m14528906b4" x="191.888929" y="234.112825" style="fill: #1f77b4; stroke: #1f77b4"/>
     <use xlink:href="#m14528906b4" x="195.168262" y="232.070736" style="fill: #1f77b4; stroke: #1f77b4"/>
     <use xlink:href="#m14528906b4" x="198.447604" y="230.008021" style="fill: #1f77b4; stroke: #1f77b4"/>
     <use xlink:href="#m14528906b4" x="201.726946" y="227.92446" style="fill: #1f77b4; stroke: #1f77b4"/>
     <use xlink:href="#m14528906b4" x="205.006278" y="225.819852" style="fill: #1f77b4; stroke: #1f77b4"/>
     <use xlink:href="#m14528906b4" x="208.285621" y="223.693996" style="fill: #1f77b4; stroke: #1f77b4"/>
     <use xlink:href="#m14528906b4" x="211.564963" y="221.546657" style="fill: #1f77b4; stroke: #1f77b4"/>
     <use xlink:href="#m14528906b4" x="214.844295" y="219.377633" style="fill: #1f77b4; stroke: #1f77b4"/>
     <use xlink:href="#m14528906b4" x="218.123637" y="217.186707" style="fill: #1f77b4; stroke: #1f77b4"/>
     <use xlink:href="#m14528906b4" x="221.40298" y="214.973643" style="fill: #1f77b4; stroke: #1f77b4"/>
     <use xlink:href="#m14528906b4" x="224.682312" y="212.738223" style="fill: #1f77b4; stroke: #1f77b4"/>
     <use xlink:href="#m14528906b4" x="227.961654" y="210.480229" style="fill: #1f77b4; stroke: #1f77b4"/>
     <use xlink:href="#m14528906b4" x="231.240996" y="208.199426" style="fill: #1f77b4; stroke: #1f77b4"/>
     <use xlink:href="#m14528906b4" x="234.520329" y="205.895579" style="fill: #1f77b4; stroke: #1f77b4"/>
     <use xlink:href="#m14528906b4" x="237.799661" y="203.56847" style="fill: #1f77b4; stroke: #1f77b4"/>
     <use xlink:href="#m14528906b4" x="241.079004" y="201.217846" style="fill: #1f77b4; stroke: #1f77b4"/>
     <use xlink:href="#m14528906b4" x="244.358346" y="198.843491" style="fill: #1f77b4; stroke: #1f77b4"/>
     <use xlink:href="#m14528906b4" x="247.637688" y="196.445152" style="fill: #1f77b4; stroke: #1f77b4"/>
     <use xlink:href="#m14528906b4" x="250.91703" y="194.022577" style="fill: #1f77b4; stroke: #1f77b4"/>
     <use xlink:href="#m14528906b4" x="254.196372" y="191.575531" style="fill: #1f77b4; stroke: #1f77b4"/>
     <use xlink:href="#m14528906b4" x="257.475695" y="189.103764" style="fill: #1f77b4; stroke: #1f77b4"/>
     <use xlink:href="#m14528906b4" x="260.755037" y="186.607038" style="fill: #1f77b4; stroke: #1f77b4"/>
     <use xlink:href="#m14528906b4" x="264.034379" y="184.085087" style="fill: #1f77b4; stroke: #1f77b4"/>
     <use xlink:href="#m14528906b4" x="267.313722" y="181.537659" style="fill: #1f77b4; stroke: #1f77b4"/>
     <use xlink:href="#m14528906b4" x="270.593064" y="178.9645" style="fill: #1f77b4; stroke: #1f77b4"/>
     <use xlink:href="#m14528906b4" x="273.872406" y="176.365361" style="fill: #1f77b4; stroke: #1f77b4"/>
     <use xlink:href="#m14528906b4" x="277.151729" y="173.739955" style="fill: #1f77b4; stroke: #1f77b4"/>
     <use xlink:href="#m14528906b4" x="280.431071" y="171.088031" style="fill: #1f77b4; stroke: #1f77b4"/>
     <use xlink:href="#m14528906b4" x="283.710413" y="168.409321" style="fill: #1f77b4; stroke: #1f77b4"/>
     <use xlink:href="#m14528906b4" x="286.989755" y="165.703554" style="fill: #1f77b4; stroke: #1f77b4"/>
     <use xlink:href="#m14528906b4" x="290.269097" y="162.970464" style="fill: #1f77b4; stroke: #1f77b4"/>
     <use xlink:href="#m14528906b4" x="293.54842" y="160.209765" style="fill: #1f77b4; stroke: #1f77b4"/>
     <use xlink:href="#m14528906b4" x="296.827762" y="157.421172" style="fill: #1f77b4; stroke: #1f77b4"/>
     <use xlink:href="#m14528906b4" x="300.107105" y="154.604415" style="fill: #1f77b4; stroke: #1f77b4"/>
     <use xlink:href="#m14528906b4" x="303.386447" y="151.75921" style="fill: #1f77b4; stroke: #1f77b4"/>
     <use xlink:href="#m14528906b4" x="306.665789" y="148.885271" style="fill: #1f77b4; stroke: #1f77b4"/>
     <use xlink:href="#m14528906b4" x="309.945131" y="145.982297" style="fill: #1f77b4; stroke: #1f77b4"/>
     <use xlink:href="#m14528906b4" x="313.224454" y="143.049985" style="fill: #1f77b4; stroke: #1f77b4"/>
     <use xlink:href="#m14528906b4" x="316.503796" y="140.088066" style="fill: #1f77b4; stroke: #1f77b4"/>
     <use xlink:href="#m14528906b4" x="319.783138" y="137.096238" style="fill: #1f77b4; stroke: #1f77b4"/>
     <use xlink:href="#m14528906b4" x="323.06248" y="134.074167" style="fill: #1f77b4; stroke: #1f77b4"/>
     <use xlink:href="#m14528906b4" x="326.341822" y="131.021583" style="fill: #1f77b4; stroke: #1f77b4"/>
     <use xlink:href="#m14528906b4" x="329.621165" y="127.93815" style="fill: #1f77b4; stroke: #1f77b4"/>
     <use xlink:href="#m14528906b4" x="332.900487" y="124.8236" style="fill: #1f77b4; stroke: #1f77b4"/>
     <use xlink:href="#m14528906b4" x="336.17983" y="121.677564" style="fill: #1f77b4; stroke: #1f77b4"/>
     <use xlink:href="#m14528906b4" x="339.459172" y="118.499774" style="fill: #1f77b4; stroke: #1f77b4"/>
     <use xlink:href="#m14528906b4" x="342.738514" y="115.289859" style="fill: #1f77b4; stroke: #1f77b4"/>
     <use xlink:href="#m14528906b4" x="346.017856" y="112.047552" style="fill: #1f77b4; stroke: #1f77b4"/>
     <use xlink:href="#m14528906b4" x="349.297198" y="108.772483" style="fill: #1f77b4; stroke: #1f77b4"/>
     <use xlink:href="#m14528906b4" x="352.576521" y="105.464316" style="fill: #1f77b4; stroke: #1f77b4"/>
     <use xlink:href="#m14528906b4" x="355.855863" y="102.122751" style="fill: #1f77b4; stroke: #1f77b4"/>
     <use xlink:href="#m14528906b4" x="359.135205" y="98.747416" style="fill: #1f77b4; stroke: #1f77b4"/>
     <use xlink:href="#m14528906b4" x="362.414548" y="95.33801" style="fill: #1f77b4; stroke: #1f77b4"/>
     <use xlink:href="#m14528906b4" x="365.69389" y="91.894165" style="fill: #1f77b4; stroke: #1f77b4"/>
     <use xlink:href="#m14528906b4" x="368.973232" y="88.415509" style="fill: #1f77b4; stroke: #1f77b4"/>
     <use xlink:href="#m14528906b4" x="372.252555" y="84.901743" style="fill: #1f77b4; stroke: #1f77b4"/>
     <use xlink:href="#m14528906b4" x="375.531897" y="81.352462" style="fill: #1f77b4; stroke: #1f77b4"/>
     <use xlink:href="#m14528906b4" x="378.811239" y="77.767331" style="fill: #1f77b4; stroke: #1f77b4"/>
     <use xlink:href="#m14528906b4" x="382.090581" y="74.145981" style="fill: #1f77b4; stroke: #1f77b4"/>
     <use xlink:href="#m14528906b4" x="385.369923" y="70.488076" style="fill: #1f77b4; stroke: #1f77b4"/>
     <use xlink:href="#m14528906b4" x="388.649266" y="66.793214" style="fill: #1f77b4; stroke: #1f77b4"/>
     <use xlink:href="#m14528906b4" x="391.928588" y="63.061024" style="fill: #1f77b4; stroke: #1f77b4"/>
     <use xlink:href="#m14528906b4" x="395.207931" y="59.291138" style="fill: #1f77b4; stroke: #1f77b4"/>
     <use xlink:href="#m14528906b4" x="398.487273" y="55.483187" style="fill: #1f77b4; stroke: #1f77b4"/>
    </g>
   </g>
   <g id="PathCollection_2">
    <defs>
     <path id="m0cb31c654d" d="M 0 3 
C 0.795609 3 1.55874 2.683901 2.12132 2.12132 
C 2.683901 1.55874 3 0.795609 3 0 
C 3 -0.795609 2.683901 -1.55874 2.12132 -2.12132 
C 1.55874 -2.683901 0.795609 -3 0 -3 
C -0.795609 -3 -1.55874 -2.683901 -2.12132 -2.12132 
C -2.683901 -1.55874 -3 -0.795609 -3 0 
C -3 0.795609 -2.683901 1.55874 -2.12132 2.12132 
C -1.55874 2.683901 -0.795609 3 0 3 
z
" style="stroke: #ff7f0e"/>
    </defs>
    <g clip-path="url(#pd7881fd62d)">
     <use xlink:href="#m0cb31c654d" x="73.832727" y="295.488" style="fill: #ff7f0e; stroke: #ff7f0e"/>
     <use xlink:href="#m0cb31c654d" x="77.112066" y="294.05865" style="fill: #ff7f0e; stroke: #ff7f0e"/>
     <use xlink:href="#m0cb31c654d" x="80.391405" y="292.6148" style="fill: #ff7f0e; stroke: #ff7f0e"/>
     <use xlink:href="#m0cb31c654d" x="83.670744" y="291.15628" style="fill: #ff7f0e; stroke: #ff7f0e"/>
     <use xlink:href="#m0cb31c654d" x="86.950083" y="289.682957" style="fill: #ff7f0e; stroke: #ff7f0e"/>
     <use xlink:href="#m0cb31c654d" x="90.229421" y="288.19468" style="fill: #ff7f0e; stroke: #ff7f0e"/>
     <use xlink:href="#m0cb31c654d" x="93.508761" y="286.691281" style="fill: #ff7f0e; stroke: #ff7f0e"/>
     <use xlink:href="#m0cb31c654d" x="96.788098" y="285.172642" style="fill: #ff7f0e; stroke: #ff7f0e"/>
     <use xlink:href="#m0cb31c654d" x="100.067438" y="283.638563" style="fill: #ff7f0e; stroke: #ff7f0e"/>
     <use xlink:href="#m0cb31c654d" x="103.346778" y="282.088924" style="fill: #ff7f0e; stroke: #ff7f0e"/>
     <use xlink:href="#m0cb31c654d" x="106.626115" y="280.523543" style="fill: #ff7f0e; stroke: #ff7f0e"/>
     <use xlink:href="#m0cb31c654d" x="109.905455" y="278.942284" style="fill: #ff7f0e; stroke: #ff7f0e"/>
     <use xlink:href="#m0cb31c654d" x="113.184795" y="277.344963" style="fill: #ff7f0e; stroke: #ff7f0e"/>
     <use xlink:href="#m0cb31c654d" x="116.464132" y="275.731413" style="fill: #ff7f0e; stroke: #ff7f0e"/>
     <use xlink:href="#m0cb31c654d" x="119.743469" y="274.101498" style="fill: #ff7f0e; stroke: #ff7f0e"/>
     <use xlink:href="#m0cb31c654d" x="123.022811" y="272.455035" style="fill: #ff7f0e; stroke: #ff7f0e"/>
     <use xlink:href="#m0cb31c654d" x="126.302149" y="270.791855" style="fill: #ff7f0e; stroke: #ff7f0e"/>
     <use xlink:href="#m0cb31c654d" x="129.581486" y="269.11179" style="fill: #ff7f0e; stroke: #ff7f0e"/>
     <use xlink:href="#m0cb31c654d" x="132.860828" y="267.414657" style="fill: #ff7f0e; stroke: #ff7f0e"/>
     <use xlink:href="#m0cb31c654d" x="136.140166" y="265.700304" style="fill: #ff7f0e; stroke: #ff7f0e"/>
     <use xlink:href="#m0cb31c654d" x="139.419503" y="263.968562" style="fill: #ff7f0e; stroke: #ff7f0e"/>
     <use xlink:href="#m0cb31c654d" x="142.698845" y="262.219215" style="fill: #ff7f0e; stroke: #ff7f0e"/>
     <use xlink:href="#m0cb31c654d" x="145.978182" y="260.45211" style="fill: #ff7f0e; stroke: #ff7f0e"/>
     <use xlink:href="#m0cb31c654d" x="149.25752" y="258.667081" style="fill: #ff7f0e; stroke: #ff7f0e"/>
     <use xlink:href="#m0cb31c654d" x="152.536862" y="256.863925" style="fill: #ff7f0e; stroke: #ff7f0e"/>
     <use xlink:href="#m0cb31c654d" x="155.816194" y="255.042458" style="fill: #ff7f0e; stroke: #ff7f0e"/>
     <use xlink:href="#m0cb31c654d" x="159.095537" y="253.202495" style="fill: #ff7f0e; stroke: #ff7f0e"/>
     <use xlink:href="#m0cb31c654d" x="162.374879" y="251.343853" style="fill: #ff7f0e; stroke: #ff7f0e"/>
     <use xlink:href="#m0cb31c654d" x="165.654211" y="249.466362" style="fill: #ff7f0e; stroke: #ff7f0e"/>
     <use xlink:href="#m0cb31c654d" x="168.933553" y="247.569788" style="fill: #ff7f0e; stroke: #ff7f0e"/>
     <use xlink:href="#m0cb31c654d" x="172.212895" y="245.653963" style="fill: #ff7f0e; stroke: #ff7f0e"/>
     <use xlink:href="#m0cb31c654d" x="175.492228" y="243.718703" style="fill: #ff7f0e; stroke: #ff7f0e"/>
     <use xlink:href="#m0cb31c654d" x="178.77157" y="241.763772" style="fill: #ff7f0e; stroke: #ff7f0e"/>
     <use xlink:href="#m0cb31c654d" x="182.050912" y="239.789002" style="fill: #ff7f0e; stroke: #ff7f0e"/>
     <use xlink:href="#m0cb31c654d" x="185.330245" y="237.794194" style="fill: #ff7f0e; stroke: #ff7f0e"/>
     <use xlink:href="#m0cb31c654d" x="188.609587" y="235.779144" style="fill: #ff7f0e; stroke: #ff7f0e"/>
     <use xlink:href="#m0cb31c654d" x="191.888929" y="233.743617" style="fill: #ff7f0e; stroke: #ff7f0e"/>
     <use xlink:href="#m0cb31c654d" x="195.168262" y="231.687414" style="fill: #ff7f0e; stroke: #ff7f0e"/>
     <use xlink:href="#m0cb31c654d" x="198.447604" y="229.610365" style="fill: #ff7f0e; stroke: #ff7f0e"/>
     <use xlink:href="#m0cb31c654d" x="201.726946" y="227.512202" style="fill: #ff7f0e; stroke: #ff7f0e"/>
     <use xlink:href="#m0cb31c654d" x="205.006278" y="225.392757" style="fill: #ff7f0e; stroke: #ff7f0e"/>
     <use xlink:href="#m0cb31c654d" x="208.285621" y="223.251796" style="fill: #ff7f0e; stroke: #ff7f0e"/>
     <use xlink:href="#m0cb31c654d" x="211.564963" y="221.089083" style="fill: #ff7f0e; stroke: #ff7f0e"/>
     <use xlink:href="#m0cb31c654d" x="214.844295" y="218.904434" style="fill: #ff7f0e; stroke: #ff7f0e"/>
     <use xlink:href="#m0cb31c654d" x="218.123637" y="216.697596" style="fill: #ff7f0e; stroke: #ff7f0e"/>
     <use xlink:href="#m0cb31c654d" x="221.40298" y="214.468353" style="fill: #ff7f0e; stroke: #ff7f0e"/>
     <use xlink:href="#m0cb31c654d" x="224.682312" y="212.216485" style="fill: #ff7f0e; stroke: #ff7f0e"/>
     <use xlink:href="#m0cb31c654d" x="227.961654" y="209.941741" style="fill: #ff7f0e; stroke: #ff7f0e"/>
     <use xlink:href="#m0cb31c654d" x="231.240996" y="207.643902" style="fill: #ff7f0e; stroke: #ff7f0e"/>
     <use xlink:href="#m0cb31c654d" x="234.520329" y="205.322751" style="fill: #ff7f0e; stroke: #ff7f0e"/>
     <use xlink:href="#m0cb31c654d" x="237.799661" y="202.978036" style="fill: #ff7f0e; stroke: #ff7f0e"/>
     <use xlink:href="#m0cb31c654d" x="241.079004" y="200.609521" style="fill: #ff7f0e; stroke: #ff7f0e"/>
     <use xlink:href="#m0cb31c654d" x="244.358346" y="198.216939" style="fill: #ff7f0e; stroke: #ff7f0e"/>
     <use xlink:href="#m0cb31c654d" x="247.637688" y="195.800071" style="fill: #ff7f0e; stroke: #ff7f0e"/>
     <use xlink:href="#m0cb31c654d" x="250.91703" y="193.358681" style="fill: #ff7f0e; stroke: #ff7f0e"/>
     <use xlink:href="#m0cb31c654d" x="254.196372" y="190.892486" style="fill: #ff7f0e; stroke: #ff7f0e"/>
     <use xlink:href="#m0cb31c654d" x="257.475695" y="188.401282" style="fill: #ff7f0e; stroke: #ff7f0e"/>
     <use xlink:href="#m0cb31c654d" x="260.755037" y="185.884769" style="fill: #ff7f0e; stroke: #ff7f0e"/>
     <use xlink:href="#m0cb31c654d" x="264.034379" y="183.342711" style="fill: #ff7f0e; stroke: #ff7f0e"/>
     <use xlink:href="#m0cb31c654d" x="267.313722" y="180.77484" style="fill: #ff7f0e; stroke: #ff7f0e"/>
     <use xlink:href="#m0cb31c654d" x="270.593064" y="178.180903" style="fill: #ff7f0e; stroke: #ff7f0e"/>
     <use xlink:href="#m0cb31c654d" x="273.872406" y="175.560617" style="fill: #ff7f0e; stroke: #ff7f0e"/>
     <use xlink:href="#m0cb31c654d" x="277.151729" y="172.913761" style="fill: #ff7f0e; stroke: #ff7f0e"/>
     <use xlink:href="#m0cb31c654d" x="280.431071" y="170.240018" style="fill: #ff7f0e; stroke: #ff7f0e"/>
     <use xlink:href="#m0cb31c654d" x="283.710413" y="167.53912" style="fill: #ff7f0e; stroke: #ff7f0e"/>
     <use xlink:href="#m0cb31c654d" x="286.989755" y="164.810813" style="fill: #ff7f0e; stroke: #ff7f0e"/>
     <use xlink:href="#m0cb31c654d" x="290.269097" y="162.054797" style="fill: #ff7f0e; stroke: #ff7f0e"/>
     <use xlink:href="#m0cb31c654d" x="293.54842" y="159.270835" style="fill: #ff7f0e; stroke: #ff7f0e"/>
     <use xlink:href="#m0cb31c654d" x="296.827762" y="156.458577" style="fill: #ff7f0e; stroke: #ff7f0e"/>
     <use xlink:href="#m0cb31c654d" x="300.107105" y="153.617769" style="fill: #ff7f0e; stroke: #ff7f0e"/>
     <use xlink:href="#m0cb31c654d" x="303.386447" y="150.748127" style="fill: #ff7f0e; stroke: #ff7f0e"/>
     <use xlink:href="#m0cb31c654d" x="306.665789" y="147.849348" style="fill: #ff7f0e; stroke: #ff7f0e"/>
     <use xlink:href="#m0cb31c654d" x="309.945131" y="144.921131" style="fill: #ff7f0e; stroke: #ff7f0e"/>
     <use xlink:href="#m0cb31c654d" x="313.224454" y="141.96324" style="fill: #ff7f0e; stroke: #ff7f0e"/>
     <use xlink:href="#m0cb31c654d" x="316.503796" y="138.975273" style="fill: #ff7f0e; stroke: #ff7f0e"/>
     <use xlink:href="#m0cb31c654d" x="319.783138" y="135.956961" style="fill: #ff7f0e; stroke: #ff7f0e"/>
     <use xlink:href="#m0cb31c654d" x="323.06248" y="132.908036" style="fill: #ff7f0e; stroke: #ff7f0e"/>
     <use xlink:href="#m0cb31c654d" x="326.341822" y="129.828128" style="fill: #ff7f0e; stroke: #ff7f0e"/>
     <use xlink:href="#m0cb31c654d" x="329.621165" y="126.716968" style="fill: #ff7f0e; stroke: #ff7f0e"/>
     <use xlink:href="#m0cb31c654d" x="332.900487" y="123.574256" style="fill: #ff7f0e; stroke: #ff7f0e"/>
     <use xlink:href="#m0cb31c654d" x="336.17983" y="120.399587" style="fill: #ff7f0e; stroke: #ff7f0e"/>
     <use xlink:href="#m0cb31c654d" x="339.459172" y="117.192727" style="fill: #ff7f0e; stroke: #ff7f0e"/>
     <use xlink:href="#m0cb31c654d" x="342.738514" y="113.953273" style="fill: #ff7f0e; stroke: #ff7f0e"/>
     <use xlink:href="#m0cb31c654d" x="346.017856" y="110.680956" style="fill: #ff7f0e; stroke: #ff7f0e"/>
     <use xlink:href="#m0cb31c654d" x="349.297198" y="107.375408" style="fill: #ff7f0e; stroke: #ff7f0e"/>
     <use xlink:href="#m0cb31c654d" x="352.576521" y="104.036326" style="fill: #ff7f0e; stroke: #ff7f0e"/>
     <use xlink:href="#m0cb31c654d" x="355.855863" y="100.663308" style="fill: #ff7f0e; stroke: #ff7f0e"/>
     <use xlink:href="#m0cb31c654d" x="359.135205" y="97.256051" style="fill: #ff7f0e; stroke: #ff7f0e"/>
     <use xlink:href="#m0cb31c654d" x="362.414548" y="93.814219" style="fill: #ff7f0e; stroke: #ff7f0e"/>
     <use xlink:href="#m0cb31c654d" x="365.69389" y="90.337444" style="fill: #ff7f0e; stroke: #ff7f0e"/>
     <use xlink:href="#m0cb31c654d" x="368.973232" y="86.825355" style="fill: #ff7f0e; stroke: #ff7f0e"/>
     <use xlink:href="#m0cb31c654d" x="372.252555" y="83.277652" style="fill: #ff7f0e; stroke: #ff7f0e"/>
     <use xlink:href="#m0cb31c654d" x="375.531897" y="79.693898" style="fill: #ff7f0e; stroke: #ff7f0e"/>
     <use xlink:href="#m0cb31c654d" x="378.811239" y="76.073756" style="fill: #ff7f0e; stroke: #ff7f0e"/>
     <use xlink:href="#m0cb31c654d" x="382.090581" y="72.416892" style="fill: #ff7f0e; stroke: #ff7f0e"/>
     <use xlink:href="#m0cb31c654d" x="385.369923" y="68.722868" style="fill: #ff7f0e; stroke: #ff7f0e"/>
     <use xlink:href="#m0cb31c654d" x="388.649266" y="64.99135" style="fill: #ff7f0e; stroke: #ff7f0e"/>
     <use xlink:href="#m0cb31c654d" x="391.928588" y="61.221968" style="fill: #ff7f0e; stroke: #ff7f0e"/>
     <use xlink:href="#m0cb31c654d" x="395.207931" y="57.414319" style="fill: #ff7f0e; stroke: #ff7f0e"/>
     <use xlink:href="#m0cb31c654d" x="398.487273" y="53.568" style="fill: #ff7f0e; stroke: #ff7f0e"/>
    </g>
   </g>
   <g id="matplotlib.axis_1">
    <g id="xtick_1">
     <g id="line2d_1">
      <defs>
       <path id="m54a2a7fa30" d="M 0 0 
L 0 3.5 
" style="stroke: #000000; stroke-width: 0.8"/>
      </defs>
      <g>
       <use xlink:href="#m54a2a7fa30" x="73.832727" y="307.584" style="stroke: #000000; stroke-width: 0.8"/>
      </g>
     </g>
     <g id="text_1">
      <!-- 0.0 -->
      <g transform="translate(65.881165 322.182437) scale(0.1 -0.1)">
       <defs>
        <path id="DejaVuSans-30" d="M 2034 4250 
Q 1547 4250 1301 3770 
Q 1056 3291 1056 2328 
Q 1056 1369 1301 889 
Q 1547 409 2034 409 
Q 2525 409 2770 889 
Q 3016 1369 3016 2328 
Q 3016 3291 2770 3770 
Q 2525 4250 2034 4250 
z
M 2034 4750 
Q 2819 4750 3233 4129 
Q 3647 3509 3647 2328 
Q 3647 1150 3233 529 
Q 2819 -91 2034 -91 
Q 1250 -91 836 529 
Q 422 1150 422 2328 
Q 422 3509 836 4129 
Q 1250 4750 2034 4750 
z
" transform="scale(0.015625)"/>
        <path id="DejaVuSans-2e" d="M 684 794 
L 1344 794 
L 1344 0 
L 684 0 
L 684 794 
z
" transform="scale(0.015625)"/>
       </defs>
       <use xlink:href="#DejaVuSans-30"/>
       <use xlink:href="#DejaVuSans-2e" x="63.623047"/>
       <use xlink:href="#DejaVuSans-30" x="95.410156"/>
      </g>
     </g>
    </g>
    <g id="xtick_2">
     <g id="line2d_2">
      <g>
       <use xlink:href="#m54a2a7fa30" x="138.763636" y="307.584" style="stroke: #000000; stroke-width: 0.8"/>
      </g>
     </g>
     <g id="text_2">
      <!-- 0.2 -->
      <g transform="translate(130.812074 322.182437) scale(0.1 -0.1)">
       <defs>
        <path id="DejaVuSans-32" d="M 1228 531 
L 3431 531 
L 3431 0 
L 469 0 
L 469 531 
Q 828 903 1448 1529 
Q 2069 2156 2228 2338 
Q 2531 2678 2651 2914 
Q 2772 3150 2772 3378 
Q 2772 3750 2511 3984 
Q 2250 4219 1831 4219 
Q 1534 4219 1204 4116 
Q 875 4013 500 3803 
L 500 4441 
Q 881 4594 1212 4672 
Q 1544 4750 1819 4750 
Q 2544 4750 2975 4387 
Q 3406 4025 3406 3419 
Q 3406 3131 3298 2873 
Q 3191 2616 2906 2266 
Q 2828 2175 2409 1742 
Q 1991 1309 1228 531 
z
" transform="scale(0.015625)"/>
       </defs>
       <use xlink:href="#DejaVuSans-30"/>
       <use xlink:href="#DejaVuSans-2e" x="63.623047"/>
       <use xlink:href="#DejaVuSans-32" x="95.410156"/>
      </g>
     </g>
    </g>
    <g id="xtick_3">
     <g id="line2d_3">
      <g>
       <use xlink:href="#m54a2a7fa30" x="203.694545" y="307.584" style="stroke: #000000; stroke-width: 0.8"/>
      </g>
     </g>
     <g id="text_3">
      <!-- 0.4 -->
      <g transform="translate(195.742983 322.182437) scale(0.1 -0.1)">
       <defs>
        <path id="DejaVuSans-34" d="M 2419 4116 
L 825 1625 
L 2419 1625 
L 2419 4116 
z
M 2253 4666 
L 3047 4666 
L 3047 1625 
L 3713 1625 
L 3713 1100 
L 3047 1100 
L 3047 0 
L 2419 0 
L 2419 1100 
L 313 1100 
L 313 1709 
L 2253 4666 
z
" transform="scale(0.015625)"/>
       </defs>
       <use xlink:href="#DejaVuSans-30"/>
       <use xlink:href="#DejaVuSans-2e" x="63.623047"/>
       <use xlink:href="#DejaVuSans-34" x="95.410156"/>
      </g>
     </g>
    </g>
    <g id="xtick_4">
     <g id="line2d_4">
      <g>
       <use xlink:href="#m54a2a7fa30" x="268.625455" y="307.584" style="stroke: #000000; stroke-width: 0.8"/>
      </g>
     </g>
     <g id="text_4">
      <!-- 0.6 -->
      <g transform="translate(260.673892 322.182437) scale(0.1 -0.1)">
       <defs>
        <path id="DejaVuSans-36" d="M 2113 2584 
Q 1688 2584 1439 2293 
Q 1191 2003 1191 1497 
Q 1191 994 1439 701 
Q 1688 409 2113 409 
Q 2538 409 2786 701 
Q 3034 994 3034 1497 
Q 3034 2003 2786 2293 
Q 2538 2584 2113 2584 
z
M 3366 4563 
L 3366 3988 
Q 3128 4100 2886 4159 
Q 2644 4219 2406 4219 
Q 1781 4219 1451 3797 
Q 1122 3375 1075 2522 
Q 1259 2794 1537 2939 
Q 1816 3084 2150 3084 
Q 2853 3084 3261 2657 
Q 3669 2231 3669 1497 
Q 3669 778 3244 343 
Q 2819 -91 2113 -91 
Q 1303 -91 875 529 
Q 447 1150 447 2328 
Q 447 3434 972 4092 
Q 1497 4750 2381 4750 
Q 2619 4750 2861 4703 
Q 3103 4656 3366 4563 
z
" transform="scale(0.015625)"/>
       </defs>
       <use xlink:href="#DejaVuSans-30"/>
       <use xlink:href="#DejaVuSans-2e" x="63.623047"/>
       <use xlink:href="#DejaVuSans-36" x="95.410156"/>
      </g>
     </g>
    </g>
    <g id="xtick_5">
     <g id="line2d_5">
      <g>
       <use xlink:href="#m54a2a7fa30" x="333.556364" y="307.584" style="stroke: #000000; stroke-width: 0.8"/>
      </g>
     </g>
     <g id="text_5">
      <!-- 0.8 -->
      <g transform="translate(325.604801 322.182437) scale(0.1 -0.1)">
       <defs>
        <path id="DejaVuSans-38" d="M 2034 2216 
Q 1584 2216 1326 1975 
Q 1069 1734 1069 1313 
Q 1069 891 1326 650 
Q 1584 409 2034 409 
Q 2484 409 2743 651 
Q 3003 894 3003 1313 
Q 3003 1734 2745 1975 
Q 2488 2216 2034 2216 
z
M 1403 2484 
Q 997 2584 770 2862 
Q 544 3141 544 3541 
Q 544 4100 942 4425 
Q 1341 4750 2034 4750 
Q 2731 4750 3128 4425 
Q 3525 4100 3525 3541 
Q 3525 3141 3298 2862 
Q 3072 2584 2669 2484 
Q 3125 2378 3379 2068 
Q 3634 1759 3634 1313 
Q 3634 634 3220 271 
Q 2806 -91 2034 -91 
Q 1263 -91 848 271 
Q 434 634 434 1313 
Q 434 1759 690 2068 
Q 947 2378 1403 2484 
z
M 1172 3481 
Q 1172 3119 1398 2916 
Q 1625 2713 2034 2713 
Q 2441 2713 2670 2916 
Q 2900 3119 2900 3481 
Q 2900 3844 2670 4047 
Q 2441 4250 2034 4250 
Q 1625 4250 1398 4047 
Q 1172 3844 1172 3481 
z
" transform="scale(0.015625)"/>
       </defs>
       <use xlink:href="#DejaVuSans-30"/>
       <use xlink:href="#DejaVuSans-2e" x="63.623047"/>
       <use xlink:href="#DejaVuSans-38" x="95.410156"/>
      </g>
     </g>
    </g>
    <g id="xtick_6">
     <g id="line2d_6">
      <g>
       <use xlink:href="#m54a2a7fa30" x="398.487273" y="307.584" style="stroke: #000000; stroke-width: 0.8"/>
      </g>
     </g>
     <g id="text_6">
      <!-- 1.0 -->
      <g transform="translate(390.53571 322.182437) scale(0.1 -0.1)">
       <defs>
        <path id="DejaVuSans-31" d="M 794 531 
L 1825 531 
L 1825 4091 
L 703 3866 
L 703 4441 
L 1819 4666 
L 2450 4666 
L 2450 531 
L 3481 531 
L 3481 0 
L 794 0 
L 794 531 
z
" transform="scale(0.015625)"/>
       </defs>
       <use xlink:href="#DejaVuSans-31"/>
       <use xlink:href="#DejaVuSans-2e" x="63.623047"/>
       <use xlink:href="#DejaVuSans-30" x="95.410156"/>
      </g>
     </g>
    </g>
   </g>
   <g id="matplotlib.axis_2">
    <g id="ytick_1">
     <g id="line2d_7">
      <defs>
       <path id="mf0a9382040" d="M 0 0 
L -3.5 0 
" style="stroke: #000000; stroke-width: 0.8"/>
      </defs>
      <g>
       <use xlink:href="#mf0a9382040" x="57.6" y="295.488" style="stroke: #000000; stroke-width: 0.8"/>
      </g>
     </g>
     <g id="text_7">
      <!-- 1.00 -->
      <g transform="translate(28.334375 299.287219) scale(0.1 -0.1)">
       <use xlink:href="#DejaVuSans-31"/>
       <use xlink:href="#DejaVuSans-2e" x="63.623047"/>
       <use xlink:href="#DejaVuSans-30" x="95.410156"/>
       <use xlink:href="#DejaVuSans-30" x="159.033203"/>
      </g>
     </g>
    </g>
    <g id="ytick_2">
     <g id="line2d_8">
      <g>
       <use xlink:href="#mf0a9382040" x="57.6" y="260.290047" style="stroke: #000000; stroke-width: 0.8"/>
      </g>
     </g>
     <g id="text_8">
      <!-- 1.25 -->
      <g transform="translate(28.334375 264.089266) scale(0.1 -0.1)">
       <defs>
        <path id="DejaVuSans-35" d="M 691 4666 
L 3169 4666 
L 3169 4134 
L 1269 4134 
L 1269 2991 
Q 1406 3038 1543 3061 
Q 1681 3084 1819 3084 
Q 2600 3084 3056 2656 
Q 3513 2228 3513 1497 
Q 3513 744 3044 326 
Q 2575 -91 1722 -91 
Q 1428 -91 1123 -41 
Q 819 9 494 109 
L 494 744 
Q 775 591 1075 516 
Q 1375 441 1709 441 
Q 2250 441 2565 725 
Q 2881 1009 2881 1497 
Q 2881 1984 2565 2268 
Q 2250 2553 1709 2553 
Q 1456 2553 1204 2497 
Q 953 2441 691 2322 
L 691 4666 
z
" transform="scale(0.015625)"/>
       </defs>
       <use xlink:href="#DejaVuSans-31"/>
       <use xlink:href="#DejaVuSans-2e" x="63.623047"/>
       <use xlink:href="#DejaVuSans-32" x="95.410156"/>
       <use xlink:href="#DejaVuSans-35" x="159.033203"/>
      </g>
     </g>
    </g>
    <g id="ytick_3">
     <g id="line2d_9">
      <g>
       <use xlink:href="#mf0a9382040" x="57.6" y="225.092094" style="stroke: #000000; stroke-width: 0.8"/>
      </g>
     </g>
     <g id="text_9">
      <!-- 1.50 -->
      <g transform="translate(28.334375 228.891313) scale(0.1 -0.1)">
       <use xlink:href="#DejaVuSans-31"/>
       <use xlink:href="#DejaVuSans-2e" x="63.623047"/>
       <use xlink:href="#DejaVuSans-35" x="95.410156"/>
       <use xlink:href="#DejaVuSans-30" x="159.033203"/>
      </g>
     </g>
    </g>
    <g id="ytick_4">
     <g id="line2d_10">
      <g>
       <use xlink:href="#mf0a9382040" x="57.6" y="189.894141" style="stroke: #000000; stroke-width: 0.8"/>
      </g>
     </g>
     <g id="text_10">
      <!-- 1.75 -->
      <g transform="translate(28.334375 193.69336) scale(0.1 -0.1)">
       <defs>
        <path id="DejaVuSans-37" d="M 525 4666 
L 3525 4666 
L 3525 4397 
L 1831 0 
L 1172 0 
L 2766 4134 
L 525 4134 
L 525 4666 
z
" transform="scale(0.015625)"/>
       </defs>
       <use xlink:href="#DejaVuSans-31"/>
       <use xlink:href="#DejaVuSans-2e" x="63.623047"/>
       <use xlink:href="#DejaVuSans-37" x="95.410156"/>
       <use xlink:href="#DejaVuSans-35" x="159.033203"/>
      </g>
     </g>
    </g>
    <g id="ytick_5">
     <g id="line2d_11">
      <g>
       <use xlink:href="#mf0a9382040" x="57.6" y="154.696188" style="stroke: #000000; stroke-width: 0.8"/>
      </g>
     </g>
     <g id="text_11">
      <!-- 2.00 -->
      <g transform="translate(28.334375 158.495407) scale(0.1 -0.1)">
       <use xlink:href="#DejaVuSans-32"/>
       <use xlink:href="#DejaVuSans-2e" x="63.623047"/>
       <use xlink:href="#DejaVuSans-30" x="95.410156"/>
       <use xlink:href="#DejaVuSans-30" x="159.033203"/>
      </g>
     </g>
    </g>
    <g id="ytick_6">
     <g id="line2d_12">
      <g>
       <use xlink:href="#mf0a9382040" x="57.6" y="119.498235" style="stroke: #000000; stroke-width: 0.8"/>
      </g>
     </g>
     <g id="text_12">
      <!-- 2.25 -->
      <g transform="translate(28.334375 123.297454) scale(0.1 -0.1)">
       <use xlink:href="#DejaVuSans-32"/>
       <use xlink:href="#DejaVuSans-2e" x="63.623047"/>
       <use xlink:href="#DejaVuSans-32" x="95.410156"/>
       <use xlink:href="#DejaVuSans-35" x="159.033203"/>
      </g>
     </g>
    </g>
    <g id="ytick_7">
     <g id="line2d_13">
      <g>
       <use xlink:href="#mf0a9382040" x="57.6" y="84.300282" style="stroke: #000000; stroke-width: 0.8"/>
      </g>
     </g>
     <g id="text_13">
      <!-- 2.50 -->
      <g transform="translate(28.334375 88.099501) scale(0.1 -0.1)">
       <use xlink:href="#DejaVuSans-32"/>
       <use xlink:href="#DejaVuSans-2e" x="63.623047"/>
       <use xlink:href="#DejaVuSans-35" x="95.410156"/>
       <use xlink:href="#DejaVuSans-30" x="159.033203"/>
      </g>
     </g>
    </g>
    <g id="ytick_8">
     <g id="line2d_14">
      <g>
       <use xlink:href="#mf0a9382040" x="57.6" y="49.10233" style="stroke: #000000; stroke-width: 0.8"/>
      </g>
     </g>
     <g id="text_14">
      <!-- 2.75 -->
      <g transform="translate(28.334375 52.901548) scale(0.1 -0.1)">
       <use xlink:href="#DejaVuSans-32"/>
       <use xlink:href="#DejaVuSans-2e" x="63.623047"/>
       <use xlink:href="#DejaVuSans-37" x="95.410156"/>
       <use xlink:href="#DejaVuSans-35" x="159.033203"/>
      </g>
     </g>
    </g>
   </g>
   <g id="patch_3">
    <path d="M 57.6 307.584 
L 57.6 41.472 
" style="fill: none; stroke: #000000; stroke-width: 0.8; stroke-linejoin: miter; stroke-linecap: square"/>
   </g>
   <g id="patch_4">
    <path d="M 414.72 307.584 
L 414.72 41.472 
" style="fill: none; stroke: #000000; stroke-width: 0.8; stroke-linejoin: miter; stroke-linecap: square"/>
   </g>
   <g id="patch_5">
    <path d="M 57.6 307.584 
L 414.72 307.584 
" style="fill: none; stroke: #000000; stroke-width: 0.8; stroke-linejoin: miter; stroke-linecap: square"/>
   </g>
   <g id="patch_6">
    <path d="M 57.6 41.472 
L 414.72 41.472 
" style="fill: none; stroke: #000000; stroke-width: 0.8; stroke-linejoin: miter; stroke-linecap: square"/>
   </g>
   <g id="legend_1">
    <g id="patch_7">
     <path d="M 64.6 78.82825 
L 146.4625 78.82825 
Q 148.4625 78.82825 148.4625 76.82825 
L 148.4625 48.472 
Q 148.4625 46.472 146.4625 46.472 
L 64.6 46.472 
Q 62.6 46.472 62.6 48.472 
L 62.6 76.82825 
Q 62.6 78.82825 64.6 78.82825 
z
" style="fill: #ffffff; opacity: 0.8; stroke: #cccccc; stroke-linejoin: miter"/>
    </g>
    <g id="PathCollection_3">
     <g>
      <use xlink:href="#m14528906b4" x="76.6" y="55.445437" style="fill: #1f77b4; stroke: #1f77b4"/>
     </g>
    </g>
    <g id="text_15">
     <!-- numerical -->
     <g transform="translate(94.6 58.070437) scale(0.1 -0.1)">
      <defs>
       <path id="DejaVuSans-6e" d="M 3513 2113 
L 3513 0 
L 2938 0 
L 2938 2094 
Q 2938 2591 2744 2837 
Q 2550 3084 2163 3084 
Q 1697 3084 1428 2787 
Q 1159 2491 1159 1978 
L 1159 0 
L 581 0 
L 581 3500 
L 1159 3500 
L 1159 2956 
Q 1366 3272 1645 3428 
Q 1925 3584 2291 3584 
Q 2894 3584 3203 3211 
Q 3513 2838 3513 2113 
z
" transform="scale(0.015625)"/>
       <path id="DejaVuSans-75" d="M 544 1381 
L 544 3500 
L 1119 3500 
L 1119 1403 
Q 1119 906 1312 657 
Q 1506 409 1894 409 
Q 2359 409 2629 706 
Q 2900 1003 2900 1516 
L 2900 3500 
L 3475 3500 
L 3475 0 
L 2900 0 
L 2900 538 
Q 2691 219 2414 64 
Q 2138 -91 1772 -91 
Q 1169 -91 856 284 
Q 544 659 544 1381 
z
M 1991 3584 
L 1991 3584 
z
" transform="scale(0.015625)"/>
       <path id="DejaVuSans-6d" d="M 3328 2828 
Q 3544 3216 3844 3400 
Q 4144 3584 4550 3584 
Q 5097 3584 5394 3201 
Q 5691 2819 5691 2113 
L 5691 0 
L 5113 0 
L 5113 2094 
Q 5113 2597 4934 2840 
Q 4756 3084 4391 3084 
Q 3944 3084 3684 2787 
Q 3425 2491 3425 1978 
L 3425 0 
L 2847 0 
L 2847 2094 
Q 2847 2600 2669 2842 
Q 2491 3084 2119 3084 
Q 1678 3084 1418 2786 
Q 1159 2488 1159 1978 
L 1159 0 
L 581 0 
L 581 3500 
L 1159 3500 
L 1159 2956 
Q 1356 3278 1631 3431 
Q 1906 3584 2284 3584 
Q 2666 3584 2933 3390 
Q 3200 3197 3328 2828 
z
" transform="scale(0.015625)"/>
       <path id="DejaVuSans-65" d="M 3597 1894 
L 3597 1613 
L 953 1613 
Q 991 1019 1311 708 
Q 1631 397 2203 397 
Q 2534 397 2845 478 
Q 3156 559 3463 722 
L 3463 178 
Q 3153 47 2828 -22 
Q 2503 -91 2169 -91 
Q 1331 -91 842 396 
Q 353 884 353 1716 
Q 353 2575 817 3079 
Q 1281 3584 2069 3584 
Q 2775 3584 3186 3129 
Q 3597 2675 3597 1894 
z
M 3022 2063 
Q 3016 2534 2758 2815 
Q 2500 3097 2075 3097 
Q 1594 3097 1305 2825 
Q 1016 2553 972 2059 
L 3022 2063 
z
" transform="scale(0.015625)"/>
       <path id="DejaVuSans-72" d="M 2631 2963 
Q 2534 3019 2420 3045 
Q 2306 3072 2169 3072 
Q 1681 3072 1420 2755 
Q 1159 2438 1159 1844 
L 1159 0 
L 581 0 
L 581 3500 
L 1159 3500 
L 1159 2956 
Q 1341 3275 1631 3429 
Q 1922 3584 2338 3584 
Q 2397 3584 2469 3576 
Q 2541 3569 2628 3553 
L 2631 2963 
z
" transform="scale(0.015625)"/>
       <path id="DejaVuSans-69" d="M 603 3500 
L 1178 3500 
L 1178 0 
L 603 0 
L 603 3500 
z
M 603 4863 
L 1178 4863 
L 1178 4134 
L 603 4134 
L 603 4863 
z
" transform="scale(0.015625)"/>
       <path id="DejaVuSans-63" d="M 3122 3366 
L 3122 2828 
Q 2878 2963 2633 3030 
Q 2388 3097 2138 3097 
Q 1578 3097 1268 2742 
Q 959 2388 959 1747 
Q 959 1106 1268 751 
Q 1578 397 2138 397 
Q 2388 397 2633 464 
Q 2878 531 3122 666 
L 3122 134 
Q 2881 22 2623 -34 
Q 2366 -91 2075 -91 
Q 1284 -91 818 406 
Q 353 903 353 1747 
Q 353 2603 823 3093 
Q 1294 3584 2113 3584 
Q 2378 3584 2631 3529 
Q 2884 3475 3122 3366 
z
" transform="scale(0.015625)"/>
       <path id="DejaVuSans-61" d="M 2194 1759 
Q 1497 1759 1228 1600 
Q 959 1441 959 1056 
Q 959 750 1161 570 
Q 1363 391 1709 391 
Q 2188 391 2477 730 
Q 2766 1069 2766 1631 
L 2766 1759 
L 2194 1759 
z
M 3341 1997 
L 3341 0 
L 2766 0 
L 2766 531 
Q 2569 213 2275 61 
Q 1981 -91 1556 -91 
Q 1019 -91 701 211 
Q 384 513 384 1019 
Q 384 1609 779 1909 
Q 1175 2209 1959 2209 
L 2766 2209 
L 2766 2266 
Q 2766 2663 2505 2880 
Q 2244 3097 1772 3097 
Q 1472 3097 1187 3025 
Q 903 2953 641 2809 
L 641 3341 
Q 956 3463 1253 3523 
Q 1550 3584 1831 3584 
Q 2591 3584 2966 3190 
Q 3341 2797 3341 1997 
z
" transform="scale(0.015625)"/>
       <path id="DejaVuSans-6c" d="M 603 4863 
L 1178 4863 
L 1178 0 
L 603 0 
L 603 4863 
z
" transform="scale(0.015625)"/>
      </defs>
      <use xlink:href="#DejaVuSans-6e"/>
      <use xlink:href="#DejaVuSans-75" x="63.378906"/>
      <use xlink:href="#DejaVuSans-6d" x="126.757812"/>
      <use xlink:href="#DejaVuSans-65" x="224.169922"/>
      <use xlink:href="#DejaVuSans-72" x="285.693359"/>
      <use xlink:href="#DejaVuSans-69" x="326.806641"/>
      <use xlink:href="#DejaVuSans-63" x="354.589844"/>
      <use xlink:href="#DejaVuSans-61" x="409.570312"/>
      <use xlink:href="#DejaVuSans-6c" x="470.849609"/>
     </g>
    </g>
    <g id="PathCollection_4">
     <g>
      <use xlink:href="#m0cb31c654d" x="76.6" y="70.123562" style="fill: #ff7f0e; stroke: #ff7f0e"/>
     </g>
    </g>
    <g id="text_16">
     <!-- exact -->
     <g transform="translate(94.6 72.748562) scale(0.1 -0.1)">
      <defs>
       <path id="DejaVuSans-78" d="M 3513 3500 
L 2247 1797 
L 3578 0 
L 2900 0 
L 1881 1375 
L 863 0 
L 184 0 
L 1544 1831 
L 300 3500 
L 978 3500 
L 1906 2253 
L 2834 3500 
L 3513 3500 
z
" transform="scale(0.015625)"/>
       <path id="DejaVuSans-74" d="M 1172 4494 
L 1172 3500 
L 2356 3500 
L 2356 3053 
L 1172 3053 
L 1172 1153 
Q 1172 725 1289 603 
Q 1406 481 1766 481 
L 2356 481 
L 2356 0 
L 1766 0 
Q 1100 0 847 248 
Q 594 497 594 1153 
L 594 3053 
L 172 3053 
L 172 3500 
L 594 3500 
L 594 4494 
L 1172 4494 
z
" transform="scale(0.015625)"/>
      </defs>
      <use xlink:href="#DejaVuSans-65"/>
      <use xlink:href="#DejaVuSans-78" x="59.773438"/>
      <use xlink:href="#DejaVuSans-61" x="118.953125"/>
      <use xlink:href="#DejaVuSans-63" x="180.232422"/>
      <use xlink:href="#DejaVuSans-74" x="235.212891"/>
     </g>
    </g>
   </g>
  </g>
 </g>
 <defs>
  <clipPath id="pd7881fd62d">
   <rect x="57.6" y="41.472" width="357.12" height="266.112"/>
  </clipPath>
 </defs>
</svg>
