<svg width="1225" height="306" viewBox="0 0 1225 306" fill="none" xmlns="http://www.w3.org/2000/svg">
<path d="M109 12H393V296H109V12Z" fill="#D9D9D9"/>
<line x1="116.5" y1="12" x2="116.5" y2="296" stroke="black" stroke-width="15"/>
<line x1="296.5" y1="12" x2="296.5" y2="296" stroke="black" stroke-width="15"/>
<line x1="206.5" y1="12" x2="206.5" y2="296" stroke="black" stroke-width="15"/>
<line x1="386.5" y1="12" x2="386.5" y2="296" stroke="black" stroke-width="15"/>
<line x1="109" y1="17.5" x2="393" y2="17.5" stroke="black" stroke-width="15"/>
<line x1="109" y1="288.5" x2="393" y2="288.5" stroke="black" stroke-width="15"/>
<line x1="109" y1="107.5" x2="393" y2="107.5" stroke="black" stroke-width="15"/>
<line x1="109" y1="197.5" x2="393" y2="197.5" stroke="black" stroke-width="15"/>
<path d="M24.4092 156.368C24.4092 135.538 27.1514 116.371 32.6358 98.8651C38.1201 81.3594 46.1251 65.2109 56.6507 50.4197H79.4192C75.3197 55.9041 71.4973 62.6349 67.9518 70.6122C64.4064 78.5895 61.3041 87.3423 58.645 96.8707C55.9859 106.344 53.9085 116.177 52.4128 126.37C50.917 136.508 50.1692 146.507 50.1692 156.368C50.1692 169.553 51.471 182.903 54.0747 196.42C56.6784 209.937 60.1961 222.485 64.628 234.063C69.0598 245.641 73.9902 255.087 79.4192 262.399H56.6507C46.1251 247.608 38.1201 231.46 32.6358 213.954C27.1514 196.448 24.4092 177.253 24.4092 156.368ZM474.57 156.368C474.57 177.253 471.828 196.448 466.343 213.954C460.859 231.46 452.854 247.608 442.329 262.399H419.56C423.66 256.915 427.482 250.184 431.027 242.207C434.573 234.229 437.675 225.504 440.334 216.031C442.993 206.503 445.071 196.642 446.566 186.449C448.062 176.256 448.81 166.229 448.81 156.368C448.81 143.239 447.508 129.915 444.905 116.398C442.301 102.881 438.783 90.3338 434.351 78.7557C429.919 67.1776 424.989 57.7322 419.56 50.4197H442.329C452.854 65.2109 460.859 81.3594 466.343 98.8651C471.828 116.371 474.57 135.538 474.57 156.368Z" fill="black"/>
<path d="M493.07 245V63.1818H526.007V146.722H528.226L599.16 63.1818H639.377L569.064 144.769L639.998 245H600.403L546.159 167.053L526.007 190.845V245H493.07ZM693.699 247.663C680.027 247.663 668.219 244.822 658.276 239.141C648.392 233.4 640.787 225.291 635.46 214.815C630.133 204.28 627.47 191.881 627.47 177.617C627.47 163.59 630.133 151.28 635.46 140.685C640.846 130.032 648.362 121.746 658.01 115.827C667.657 109.85 678.991 106.861 692.012 106.861C700.416 106.861 708.347 108.222 715.804 110.945C723.321 113.608 729.95 117.751 735.691 123.374C741.491 128.996 746.048 136.158 749.363 144.858C752.677 153.499 754.334 163.797 754.334 175.753V185.607H642.562V163.945H723.528C723.469 157.79 722.137 152.315 719.533 147.521C716.929 142.668 713.289 138.851 708.613 136.069C703.997 133.287 698.611 131.896 692.456 131.896C685.886 131.896 680.115 133.494 675.144 136.69C670.172 139.827 666.296 143.97 663.514 149.119C660.791 154.209 659.4 159.802 659.341 165.898V184.808C659.341 192.739 660.791 199.545 663.691 205.227C666.592 210.85 670.646 215.17 675.854 218.189C681.062 221.148 687.158 222.628 694.142 222.628C698.818 222.628 703.05 221.977 706.838 220.675C710.626 219.313 713.91 217.331 716.692 214.727C719.474 212.122 721.575 208.897 722.995 205.05L753.002 208.423C751.109 216.354 747.498 223.279 742.172 229.197C736.904 235.057 730.157 239.614 721.93 242.869C713.703 246.065 704.293 247.663 693.699 247.663ZM764.023 245V108.636H795.184V131.364H796.604C799.09 123.492 803.351 117.425 809.388 113.164C815.484 108.844 822.439 106.683 830.251 106.683C832.027 106.683 834.01 106.772 836.199 106.95C838.448 107.068 840.313 107.275 841.792 107.571V137.134C840.431 136.661 838.271 136.246 835.312 135.891C832.412 135.477 829.6 135.27 826.878 135.27C821.018 135.27 815.751 136.542 811.075 139.087C806.459 141.573 802.819 145.036 800.155 149.474C797.492 153.913 796.16 159.033 796.16 164.833V245H764.023ZM877.781 165.099V245H845.644V108.636H876.361V131.808H877.959C881.096 124.173 886.097 118.106 892.963 113.608C899.887 109.11 908.44 106.861 918.619 106.861C928.03 106.861 936.227 108.873 943.211 112.898C950.254 116.922 955.699 122.752 959.546 130.387C963.453 138.022 965.376 147.285 965.317 158.175V245H933.179V163.146C933.179 154.032 930.812 146.9 926.077 141.751C921.401 136.602 914.92 134.027 906.634 134.027C901.012 134.027 896.011 135.27 891.631 137.756C887.31 140.182 883.907 143.704 881.421 148.32C878.995 152.937 877.781 158.53 877.781 165.099ZM1040.86 247.663C1027.18 247.663 1015.38 244.822 1005.43 239.141C995.55 233.4 987.945 225.291 982.618 214.815C977.291 204.28 974.628 191.881 974.628 177.617C974.628 163.59 977.291 151.28 982.618 140.685C988.004 130.032 995.521 121.746 1005.17 115.827C1014.82 109.85 1026.15 106.861 1039.17 106.861C1047.57 106.861 1055.51 108.222 1062.96 110.945C1070.48 113.608 1077.11 117.751 1082.85 123.374C1088.65 128.996 1093.21 136.158 1096.52 144.858C1099.84 153.499 1101.49 163.797 1101.49 175.753V185.607H989.72V163.945H1070.69C1070.63 157.79 1069.3 152.315 1066.69 147.521C1064.09 142.668 1060.45 138.851 1055.77 136.069C1051.16 133.287 1045.77 131.896 1039.61 131.896C1033.04 131.896 1027.27 133.494 1022.3 136.69C1017.33 139.827 1013.45 143.97 1010.67 149.119C1007.95 154.209 1006.56 159.802 1006.5 165.898V184.808C1006.5 192.739 1007.95 199.545 1010.85 205.227C1013.75 210.85 1017.8 215.17 1023.01 218.189C1028.22 221.148 1034.32 222.628 1041.3 222.628C1045.98 222.628 1050.21 221.977 1054 220.675C1057.78 219.313 1061.07 217.331 1063.85 214.727C1066.63 212.122 1068.73 208.897 1070.15 205.05L1100.16 208.423C1098.27 216.354 1094.66 223.279 1089.33 229.197C1084.06 235.057 1077.32 239.614 1069.09 242.869C1060.86 246.065 1051.45 247.663 1040.86 247.663ZM1134.53 108.636L1162.05 158.974L1190.02 108.636H1224.02L1182.91 176.818L1224.73 245H1190.9L1162.05 195.906L1133.46 245H1099.37L1140.92 176.818L1100.44 108.636H1134.53Z" fill="#B4B4B4"/>
</svg>
