<svg width="1280" height="401" viewBox="0 0 1280 401" fill="none" xmlns="http://www.w3.org/2000/svg">
<rect width="1280" height="401" fill="#1E1E1E"/>
<rect width="1280" height="401" fill="white"/>
<path d="M125 72H409V356H125V72Z" fill="#D9D9D9"/>
<line x1="132.5" y1="72" x2="132.5" y2="356" stroke="black" stroke-width="15"/>
<line x1="312.5" y1="72" x2="312.5" y2="356" stroke="black" stroke-width="15"/>
<line x1="222.5" y1="72" x2="222.5" y2="356" stroke="black" stroke-width="15"/>
<line x1="402.5" y1="72" x2="402.5" y2="356" stroke="black" stroke-width="15"/>
<line x1="125" y1="77.5" x2="409" y2="77.5" stroke="black" stroke-width="15"/>
<line x1="125" y1="348.5" x2="409" y2="348.5" stroke="black" stroke-width="15"/>
<line x1="125" y1="167.5" x2="409" y2="167.5" stroke="black" stroke-width="15"/>
<line x1="125" y1="257.5" x2="409" y2="257.5" stroke="black" stroke-width="15"/>
<path d="M40.4092 216.368C40.4092 195.538 43.1514 176.371 48.6358 158.865C54.1201 141.359 62.1251 125.211 72.6507 110.42H95.4192C91.3197 115.904 87.4973 122.635 83.9518 130.612C80.4064 138.589 77.3041 147.342 74.645 156.871C71.9859 166.344 69.9085 176.177 68.4128 186.37C66.917 196.508 66.1692 206.507 66.1692 216.368C66.1692 229.553 67.471 242.903 70.0747 256.42C72.6784 269.937 76.1961 282.485 80.628 294.063C85.0598 305.641 89.9902 315.087 95.4192 322.399H72.6507C62.1251 307.608 54.1201 291.46 48.6358 273.954C43.1514 256.448 40.4092 237.253 40.4092 216.368ZM490.57 216.368C490.57 237.253 487.828 256.448 482.343 273.954C476.859 291.46 468.854 307.608 458.329 322.399H435.56C439.66 316.915 443.482 310.184 447.027 302.207C450.573 294.229 453.675 285.504 456.334 276.031C458.993 266.503 461.071 256.642 462.566 246.449C464.062 236.256 464.81 226.229 464.81 216.368C464.81 203.239 463.508 189.915 460.905 176.398C458.301 162.881 454.783 150.334 450.351 138.756C445.919 127.178 440.989 117.732 435.56 110.42H458.329C468.854 125.211 476.859 141.359 482.343 158.865C487.828 176.371 490.57 195.538 490.57 216.368Z" fill="black"/>
<path d="M519.302 305V123.182H546.735V210.007H548.954L625.215 123.182H659.75L586.419 205.036L660.016 305H626.991L568.219 223.768L546.735 248.448V305H519.302ZM714.449 307.752C701.014 307.752 689.443 304.882 679.736 299.141C670.089 293.34 662.632 285.202 657.364 274.727C652.156 264.192 649.552 251.851 649.552 237.706C649.552 223.738 652.156 211.428 657.364 200.774C662.632 190.121 669.971 181.805 679.381 175.827C688.851 169.85 699.919 166.861 712.584 166.861C720.279 166.861 727.736 168.133 734.957 170.678C742.177 173.223 748.658 177.218 754.399 182.663C760.14 188.108 764.668 195.181 767.982 203.881C771.297 212.522 772.954 223.028 772.954 235.398V244.808H664.555V224.922H746.942C746.942 217.938 745.521 211.753 742.68 206.367C739.839 200.922 735.844 196.631 730.695 193.494C725.605 190.357 719.628 188.789 712.762 188.789C705.305 188.789 698.794 190.624 693.231 194.293C687.726 197.904 683.465 202.638 680.447 208.498C677.487 214.298 676.008 220.601 676.008 227.408V242.944C676.008 252.058 677.606 259.812 680.802 266.204C684.057 272.596 688.585 277.479 694.385 280.852C700.185 284.167 706.962 285.824 714.715 285.824C719.746 285.824 724.333 285.114 728.476 283.693C732.619 282.214 736.199 280.024 739.218 277.124C742.236 274.223 744.545 270.643 746.143 266.381L771.267 270.909C769.255 278.307 765.644 284.788 760.436 290.352C755.287 295.856 748.806 300.147 740.994 303.224C733.24 306.243 724.392 307.752 714.449 307.752ZM784.906 305V168.636H810.563V190.298H811.983C814.469 182.959 818.849 177.189 825.123 172.987C831.455 168.725 838.617 166.594 846.607 166.594C848.264 166.594 850.217 166.654 852.466 166.772C854.775 166.89 856.58 167.038 857.882 167.216V192.607C856.816 192.311 854.923 191.985 852.2 191.63C849.477 191.216 846.755 191.009 844.032 191.009C837.759 191.009 832.166 192.34 827.253 195.004C822.4 197.608 818.553 201.248 815.712 205.923C812.871 210.54 811.451 215.807 811.451 221.726V305H784.906ZM889.898 224.034V305H863.353V168.636H888.833V190.831H890.519C893.656 183.61 898.569 177.81 905.257 173.43C912.004 169.051 920.497 166.861 930.736 166.861C940.028 166.861 948.166 168.814 955.15 172.72C962.134 176.567 967.55 182.308 971.397 189.943C975.244 197.578 977.167 207.018 977.167 218.263V305H950.622V221.46C950.622 211.576 948.048 203.852 942.899 198.288C937.75 192.666 930.677 189.854 921.681 189.854C915.525 189.854 910.051 191.186 905.257 193.849C900.522 196.513 896.764 200.419 893.982 205.568C891.259 210.658 889.898 216.813 889.898 224.034ZM1054.04 307.752C1040.6 307.752 1029.03 304.882 1019.33 299.141C1009.68 293.34 1002.22 285.202 996.954 274.727C991.746 264.192 989.142 251.851 989.142 237.706C989.142 223.738 991.746 211.428 996.954 200.774C1002.22 190.121 1009.56 181.805 1018.97 175.827C1028.44 169.85 1039.51 166.861 1052.17 166.861C1059.87 166.861 1067.33 168.133 1074.55 170.678C1081.77 173.223 1088.25 177.218 1093.99 182.663C1099.73 188.108 1104.26 195.181 1107.57 203.881C1110.89 212.522 1112.54 223.028 1112.54 235.398V244.808H1004.15V224.922H1086.53C1086.53 217.938 1085.11 211.753 1082.27 206.367C1079.43 200.922 1075.43 196.631 1070.29 193.494C1065.2 190.357 1059.22 188.789 1052.35 188.789C1044.89 188.789 1038.38 190.624 1032.82 194.293C1027.32 197.904 1023.05 202.638 1020.04 208.498C1017.08 214.298 1015.6 220.601 1015.6 227.408V242.944C1015.6 252.058 1017.2 259.812 1020.39 266.204C1023.65 272.596 1028.17 277.479 1033.97 280.852C1039.77 284.167 1046.55 285.824 1054.3 285.824C1059.34 285.824 1063.92 285.114 1068.07 283.693C1072.21 282.214 1075.79 280.024 1078.81 277.124C1081.83 274.223 1084.13 270.643 1085.73 266.381L1110.86 270.909C1108.84 278.307 1105.23 284.788 1100.03 290.352C1094.88 295.856 1088.4 300.147 1080.58 303.224C1072.83 306.243 1063.98 307.752 1054.04 307.752ZM1142.27 168.636L1172.37 221.726L1202.73 168.636H1231.76L1189.24 236.818L1232.12 305H1203.09L1172.37 254.041L1141.74 305H1112.62L1155.06 236.818L1113.15 168.636H1142.27Z" fill="#B4B4B4"/>
</svg>
