<?xml version="1.0" encoding="utf-8" standalone="no"?>
<!DOCTYPE svg PUBLIC "-//W3C//DTD SVG 1.1//EN"
  "http://www.w3.org/Graphics/SVG/1.1/DTD/svg11.dtd">
<svg xmlns:xlink="http://www.w3.org/1999/xlink" width="1440pt" height="504pt" viewBox="0 0 1440 504" xmlns="http://www.w3.org/2000/svg" version="1.1">
 <metadata>
  <rdf:RDF xmlns:dc="http://purl.org/dc/elements/1.1/" xmlns:cc="http://creativecommons.org/ns#" xmlns:rdf="http://www.w3.org/1999/02/22-rdf-syntax-ns#">
   <cc:Work>
    <dc:type rdf:resource="http://purl.org/dc/dcmitype/StillImage"/>
    <dc:date>2022-07-17T23:27:16.851019</dc:date>
    <dc:format>image/svg+xml</dc:format>
    <dc:creator>
     <cc:Agent>
      <dc:title>Matplotlib v3.5.2, https://matplotlib.org/</dc:title>
     </cc:Agent>
    </dc:creator>
   </cc:Work>
  </rdf:RDF>
 </metadata>
 <defs>
  <style type="text/css">*{stroke-linejoin: round; stroke-linecap: butt}</style>
 </defs>
 <g id="figure_1">
  <g id="patch_1">
   <path d="M 0 504 
L 1440 504 
L 1440 0 
L 0 0 
L 0 504 
z
" style="fill: none"/>
  </g>
  <g id="axes_1">
   <g id="patch_2">
    <path d="M 180 441 
L 1296 441 
L 1296 60.48 
L 180 60.48 
z
" style="fill: #ffffff"/>
   </g>
   <g id="matplotlib.axis_1">
    <g id="xtick_1">
     <g id="line2d_1">
      <defs>
       <path id="m6f2a969870" d="M 0 0 
L 0 3.5 
" style="stroke: #000000; stroke-width: 0.8"/>
      </defs>
      <g>
       <use xlink:href="#m6f2a969870" x="230.727273" y="441" style="stroke: #000000; stroke-width: 0.8"/>
      </g>
     </g>
     <g id="text_1">
      <!-- 0.00 -->
      <g transform="translate(219.59446 455.598437)scale(0.1 -0.1)">
       <defs>
        <path id="DejaVuSans-30" d="M 2034 4250 
Q 1547 4250 1301 3770 
Q 1056 3291 1056 2328 
Q 1056 1369 1301 889 
Q 1547 409 2034 409 
Q 2525 409 2770 889 
Q 3016 1369 3016 2328 
Q 3016 3291 2770 3770 
Q 2525 4250 2034 4250 
z
M 2034 4750 
Q 2819 4750 3233 4129 
Q 3647 3509 3647 2328 
Q 3647 1150 3233 529 
Q 2819 -91 2034 -91 
Q 1250 -91 836 529 
Q 422 1150 422 2328 
Q 422 3509 836 4129 
Q 1250 4750 2034 4750 
z
" transform="scale(0.015625)"/>
        <path id="DejaVuSans-2e" d="M 684 794 
L 1344 794 
L 1344 0 
L 684 0 
L 684 794 
z
" transform="scale(0.015625)"/>
       </defs>
       <use xlink:href="#DejaVuSans-30"/>
       <use xlink:href="#DejaVuSans-2e" x="63.623047"/>
       <use xlink:href="#DejaVuSans-30" x="95.410156"/>
       <use xlink:href="#DejaVuSans-30" x="159.033203"/>
      </g>
     </g>
    </g>
    <g id="xtick_2">
     <g id="line2d_2">
      <g>
       <use xlink:href="#m6f2a969870" x="357.545455" y="441" style="stroke: #000000; stroke-width: 0.8"/>
      </g>
     </g>
     <g id="text_2">
      <!-- 0.25 -->
      <g transform="translate(346.412642 455.598437)scale(0.1 -0.1)">
       <defs>
        <path id="DejaVuSans-32" d="M 1228 531 
L 3431 531 
L 3431 0 
L 469 0 
L 469 531 
Q 828 903 1448 1529 
Q 2069 2156 2228 2338 
Q 2531 2678 2651 2914 
Q 2772 3150 2772 3378 
Q 2772 3750 2511 3984 
Q 2250 4219 1831 4219 
Q 1534 4219 1204 4116 
Q 875 4013 500 3803 
L 500 4441 
Q 881 4594 1212 4672 
Q 1544 4750 1819 4750 
Q 2544 4750 2975 4387 
Q 3406 4025 3406 3419 
Q 3406 3131 3298 2873 
Q 3191 2616 2906 2266 
Q 2828 2175 2409 1742 
Q 1991 1309 1228 531 
z
" transform="scale(0.015625)"/>
        <path id="DejaVuSans-35" d="M 691 4666 
L 3169 4666 
L 3169 4134 
L 1269 4134 
L 1269 2991 
Q 1406 3038 1543 3061 
Q 1681 3084 1819 3084 
Q 2600 3084 3056 2656 
Q 3513 2228 3513 1497 
Q 3513 744 3044 326 
Q 2575 -91 1722 -91 
Q 1428 -91 1123 -41 
Q 819 9 494 109 
L 494 744 
Q 775 591 1075 516 
Q 1375 441 1709 441 
Q 2250 441 2565 725 
Q 2881 1009 2881 1497 
Q 2881 1984 2565 2268 
Q 2250 2553 1709 2553 
Q 1456 2553 1204 2497 
Q 953 2441 691 2322 
L 691 4666 
z
" transform="scale(0.015625)"/>
       </defs>
       <use xlink:href="#DejaVuSans-30"/>
       <use xlink:href="#DejaVuSans-2e" x="63.623047"/>
       <use xlink:href="#DejaVuSans-32" x="95.410156"/>
       <use xlink:href="#DejaVuSans-35" x="159.033203"/>
      </g>
     </g>
    </g>
    <g id="xtick_3">
     <g id="line2d_3">
      <g>
       <use xlink:href="#m6f2a969870" x="484.363636" y="441" style="stroke: #000000; stroke-width: 0.8"/>
      </g>
     </g>
     <g id="text_3">
      <!-- 0.50 -->
      <g transform="translate(473.230824 455.598437)scale(0.1 -0.1)">
       <use xlink:href="#DejaVuSans-30"/>
       <use xlink:href="#DejaVuSans-2e" x="63.623047"/>
       <use xlink:href="#DejaVuSans-35" x="95.410156"/>
       <use xlink:href="#DejaVuSans-30" x="159.033203"/>
      </g>
     </g>
    </g>
    <g id="xtick_4">
     <g id="line2d_4">
      <g>
       <use xlink:href="#m6f2a969870" x="611.181818" y="441" style="stroke: #000000; stroke-width: 0.8"/>
      </g>
     </g>
     <g id="text_4">
      <!-- 0.75 -->
      <g transform="translate(600.049006 455.598437)scale(0.1 -0.1)">
       <defs>
        <path id="DejaVuSans-37" d="M 525 4666 
L 3525 4666 
L 3525 4397 
L 1831 0 
L 1172 0 
L 2766 4134 
L 525 4134 
L 525 4666 
z
" transform="scale(0.015625)"/>
       </defs>
       <use xlink:href="#DejaVuSans-30"/>
       <use xlink:href="#DejaVuSans-2e" x="63.623047"/>
       <use xlink:href="#DejaVuSans-37" x="95.410156"/>
       <use xlink:href="#DejaVuSans-35" x="159.033203"/>
      </g>
     </g>
    </g>
    <g id="xtick_5">
     <g id="line2d_5">
      <g>
       <use xlink:href="#m6f2a969870" x="738" y="441" style="stroke: #000000; stroke-width: 0.8"/>
      </g>
     </g>
     <g id="text_5">
      <!-- 1.00 -->
      <g transform="translate(726.867188 455.598437)scale(0.1 -0.1)">
       <defs>
        <path id="DejaVuSans-31" d="M 794 531 
L 1825 531 
L 1825 4091 
L 703 3866 
L 703 4441 
L 1819 4666 
L 2450 4666 
L 2450 531 
L 3481 531 
L 3481 0 
L 794 0 
L 794 531 
z
" transform="scale(0.015625)"/>
       </defs>
       <use xlink:href="#DejaVuSans-31"/>
       <use xlink:href="#DejaVuSans-2e" x="63.623047"/>
       <use xlink:href="#DejaVuSans-30" x="95.410156"/>
       <use xlink:href="#DejaVuSans-30" x="159.033203"/>
      </g>
     </g>
    </g>
    <g id="xtick_6">
     <g id="line2d_6">
      <g>
       <use xlink:href="#m6f2a969870" x="864.818182" y="441" style="stroke: #000000; stroke-width: 0.8"/>
      </g>
     </g>
     <g id="text_6">
      <!-- 1.25 -->
      <g transform="translate(853.685369 455.598437)scale(0.1 -0.1)">
       <use xlink:href="#DejaVuSans-31"/>
       <use xlink:href="#DejaVuSans-2e" x="63.623047"/>
       <use xlink:href="#DejaVuSans-32" x="95.410156"/>
       <use xlink:href="#DejaVuSans-35" x="159.033203"/>
      </g>
     </g>
    </g>
    <g id="xtick_7">
     <g id="line2d_7">
      <g>
       <use xlink:href="#m6f2a969870" x="991.636364" y="441" style="stroke: #000000; stroke-width: 0.8"/>
      </g>
     </g>
     <g id="text_7">
      <!-- 1.50 -->
      <g transform="translate(980.503551 455.598437)scale(0.1 -0.1)">
       <use xlink:href="#DejaVuSans-31"/>
       <use xlink:href="#DejaVuSans-2e" x="63.623047"/>
       <use xlink:href="#DejaVuSans-35" x="95.410156"/>
       <use xlink:href="#DejaVuSans-30" x="159.033203"/>
      </g>
     </g>
    </g>
    <g id="xtick_8">
     <g id="line2d_8">
      <g>
       <use xlink:href="#m6f2a969870" x="1118.454545" y="441" style="stroke: #000000; stroke-width: 0.8"/>
      </g>
     </g>
     <g id="text_8">
      <!-- 1.75 -->
      <g transform="translate(1107.321733 455.598437)scale(0.1 -0.1)">
       <use xlink:href="#DejaVuSans-31"/>
       <use xlink:href="#DejaVuSans-2e" x="63.623047"/>
       <use xlink:href="#DejaVuSans-37" x="95.410156"/>
       <use xlink:href="#DejaVuSans-35" x="159.033203"/>
      </g>
     </g>
    </g>
    <g id="xtick_9">
     <g id="line2d_9">
      <g>
       <use xlink:href="#m6f2a969870" x="1245.272727" y="441" style="stroke: #000000; stroke-width: 0.8"/>
      </g>
     </g>
     <g id="text_9">
      <!-- 2.00 -->
      <g transform="translate(1234.139915 455.598437)scale(0.1 -0.1)">
       <use xlink:href="#DejaVuSans-32"/>
       <use xlink:href="#DejaVuSans-2e" x="63.623047"/>
       <use xlink:href="#DejaVuSans-30" x="95.410156"/>
       <use xlink:href="#DejaVuSans-30" x="159.033203"/>
      </g>
     </g>
    </g>
    <g id="text_10">
     <!-- x -->
     <g transform="translate(735.040625 469.276563)scale(0.1 -0.1)">
      <defs>
       <path id="DejaVuSans-78" d="M 3513 3500 
L 2247 1797 
L 3578 0 
L 2900 0 
L 1881 1375 
L 863 0 
L 184 0 
L 1544 1831 
L 300 3500 
L 978 3500 
L 1906 2253 
L 2834 3500 
L 3513 3500 
z
" transform="scale(0.015625)"/>
      </defs>
      <use xlink:href="#DejaVuSans-78"/>
     </g>
    </g>
   </g>
   <g id="matplotlib.axis_2">
    <g id="ytick_1">
     <g id="line2d_10">
      <defs>
       <path id="m0e10e2dd2a" d="M 0 0 
L -3.5 0 
" style="stroke: #000000; stroke-width: 0.8"/>
      </defs>
      <g>
       <use xlink:href="#m0e10e2dd2a" x="180" y="423.703636" style="stroke: #000000; stroke-width: 0.8"/>
      </g>
     </g>
     <g id="text_11">
      <!-- 1.0 -->
      <g transform="translate(157.096875 427.502855)scale(0.1 -0.1)">
       <use xlink:href="#DejaVuSans-31"/>
       <use xlink:href="#DejaVuSans-2e" x="63.623047"/>
       <use xlink:href="#DejaVuSans-30" x="95.410156"/>
      </g>
     </g>
    </g>
    <g id="ytick_2">
     <g id="line2d_11">
      <g>
       <use xlink:href="#m0e10e2dd2a" x="180" y="354.518182" style="stroke: #000000; stroke-width: 0.8"/>
      </g>
     </g>
     <g id="text_12">
      <!-- 1.2 -->
      <g transform="translate(157.096875 358.317401)scale(0.1 -0.1)">
       <use xlink:href="#DejaVuSans-31"/>
       <use xlink:href="#DejaVuSans-2e" x="63.623047"/>
       <use xlink:href="#DejaVuSans-32" x="95.410156"/>
      </g>
     </g>
    </g>
    <g id="ytick_3">
     <g id="line2d_12">
      <g>
       <use xlink:href="#m0e10e2dd2a" x="180" y="285.332727" style="stroke: #000000; stroke-width: 0.8"/>
      </g>
     </g>
     <g id="text_13">
      <!-- 1.4 -->
      <g transform="translate(157.096875 289.131946)scale(0.1 -0.1)">
       <defs>
        <path id="DejaVuSans-34" d="M 2419 4116 
L 825 1625 
L 2419 1625 
L 2419 4116 
z
M 2253 4666 
L 3047 4666 
L 3047 1625 
L 3713 1625 
L 3713 1100 
L 3047 1100 
L 3047 0 
L 2419 0 
L 2419 1100 
L 313 1100 
L 313 1709 
L 2253 4666 
z
" transform="scale(0.015625)"/>
       </defs>
       <use xlink:href="#DejaVuSans-31"/>
       <use xlink:href="#DejaVuSans-2e" x="63.623047"/>
       <use xlink:href="#DejaVuSans-34" x="95.410156"/>
      </g>
     </g>
    </g>
    <g id="ytick_4">
     <g id="line2d_13">
      <g>
       <use xlink:href="#m0e10e2dd2a" x="180" y="216.147273" style="stroke: #000000; stroke-width: 0.8"/>
      </g>
     </g>
     <g id="text_14">
      <!-- 1.6 -->
      <g transform="translate(157.096875 219.946491)scale(0.1 -0.1)">
       <defs>
        <path id="DejaVuSans-36" d="M 2113 2584 
Q 1688 2584 1439 2293 
Q 1191 2003 1191 1497 
Q 1191 994 1439 701 
Q 1688 409 2113 409 
Q 2538 409 2786 701 
Q 3034 994 3034 1497 
Q 3034 2003 2786 2293 
Q 2538 2584 2113 2584 
z
M 3366 4563 
L 3366 3988 
Q 3128 4100 2886 4159 
Q 2644 4219 2406 4219 
Q 1781 4219 1451 3797 
Q 1122 3375 1075 2522 
Q 1259 2794 1537 2939 
Q 1816 3084 2150 3084 
Q 2853 3084 3261 2657 
Q 3669 2231 3669 1497 
Q 3669 778 3244 343 
Q 2819 -91 2113 -91 
Q 1303 -91 875 529 
Q 447 1150 447 2328 
Q 447 3434 972 4092 
Q 1497 4750 2381 4750 
Q 2619 4750 2861 4703 
Q 3103 4656 3366 4563 
z
" transform="scale(0.015625)"/>
       </defs>
       <use xlink:href="#DejaVuSans-31"/>
       <use xlink:href="#DejaVuSans-2e" x="63.623047"/>
       <use xlink:href="#DejaVuSans-36" x="95.410156"/>
      </g>
     </g>
    </g>
    <g id="ytick_5">
     <g id="line2d_14">
      <g>
       <use xlink:href="#m0e10e2dd2a" x="180" y="146.961818" style="stroke: #000000; stroke-width: 0.8"/>
      </g>
     </g>
     <g id="text_15">
      <!-- 1.8 -->
      <g transform="translate(157.096875 150.761037)scale(0.1 -0.1)">
       <defs>
        <path id="DejaVuSans-38" d="M 2034 2216 
Q 1584 2216 1326 1975 
Q 1069 1734 1069 1313 
Q 1069 891 1326 650 
Q 1584 409 2034 409 
Q 2484 409 2743 651 
Q 3003 894 3003 1313 
Q 3003 1734 2745 1975 
Q 2488 2216 2034 2216 
z
M 1403 2484 
Q 997 2584 770 2862 
Q 544 3141 544 3541 
Q 544 4100 942 4425 
Q 1341 4750 2034 4750 
Q 2731 4750 3128 4425 
Q 3525 4100 3525 3541 
Q 3525 3141 3298 2862 
Q 3072 2584 2669 2484 
Q 3125 2378 3379 2068 
Q 3634 1759 3634 1313 
Q 3634 634 3220 271 
Q 2806 -91 2034 -91 
Q 1263 -91 848 271 
Q 434 634 434 1313 
Q 434 1759 690 2068 
Q 947 2378 1403 2484 
z
M 1172 3481 
Q 1172 3119 1398 2916 
Q 1625 2713 2034 2713 
Q 2441 2713 2670 2916 
Q 2900 3119 2900 3481 
Q 2900 3844 2670 4047 
Q 2441 4250 2034 4250 
Q 1625 4250 1398 4047 
Q 1172 3844 1172 3481 
z
" transform="scale(0.015625)"/>
       </defs>
       <use xlink:href="#DejaVuSans-31"/>
       <use xlink:href="#DejaVuSans-2e" x="63.623047"/>
       <use xlink:href="#DejaVuSans-38" x="95.410156"/>
      </g>
     </g>
    </g>
    <g id="ytick_6">
     <g id="line2d_15">
      <g>
       <use xlink:href="#m0e10e2dd2a" x="180" y="77.776364" style="stroke: #000000; stroke-width: 0.8"/>
      </g>
     </g>
     <g id="text_16">
      <!-- 2.0 -->
      <g transform="translate(157.096875 81.575582)scale(0.1 -0.1)">
       <use xlink:href="#DejaVuSans-32"/>
       <use xlink:href="#DejaVuSans-2e" x="63.623047"/>
       <use xlink:href="#DejaVuSans-30" x="95.410156"/>
      </g>
     </g>
    </g>
    <g id="text_17">
     <!-- u -->
     <g transform="translate(151.017188 253.90875)rotate(-90)scale(0.1 -0.1)">
      <defs>
       <path id="DejaVuSans-75" d="M 544 1381 
L 544 3500 
L 1119 3500 
L 1119 1403 
Q 1119 906 1312 657 
Q 1506 409 1894 409 
Q 2359 409 2629 706 
Q 2900 1003 2900 1516 
L 2900 3500 
L 3475 3500 
L 3475 0 
L 2900 0 
L 2900 538 
Q 2691 219 2414 64 
Q 2138 -91 1772 -91 
Q 1169 -91 856 284 
Q 544 659 544 1381 
z
M 1991 3584 
L 1991 3584 
z
" transform="scale(0.015625)"/>
      </defs>
      <use xlink:href="#DejaVuSans-75"/>
     </g>
    </g>
   </g>
   <g id="line2d_16">
    <path d="M 230.727273 423.703636 
L 251.018181 423.703636 
L 271.30909 423.703636 
L 291.599999 423.703636 
L 311.890907 423.703636 
L 332.181812 423.703636 
L 352.472725 423.703636 
L 372.763637 423.703636 
L 393.054542 423.703636 
L 413.345447 423.703636 
L 433.636352 423.703636 
L 453.927272 423.703636 
L 474.218176 423.703636 
L 494.509081 77.776364 
L 514.800001 77.776364 
L 535.090891 77.776364 
L 555.381811 77.776364 
L 575.672731 77.776364 
L 595.963621 77.776364 
L 616.254541 77.776364 
L 636.54543 77.776364 
L 656.83635 77.776364 
L 677.12727 77.776364 
L 697.41816 77.776364 
L 717.70908 77.776364 
L 738 423.703636 
L 758.29089 423.703636 
L 778.581779 423.703636 
L 798.87273 423.703636 
L 819.163619 423.703636 
L 839.454509 423.703636 
L 859.745459 423.703636 
L 880.036349 423.703636 
L 900.327239 423.703636 
L 920.618189 423.703636 
L 940.909079 423.703636 
L 961.199969 423.703636 
L 981.490919 423.703636 
L 1001.781809 423.703636 
L 1022.072698 423.703636 
L 1042.363588 423.703636 
L 1062.654538 423.703636 
L 1082.945428 423.703636 
L 1103.236318 423.703636 
L 1123.527268 423.703636 
L 1143.818158 423.703636 
L 1164.109047 423.703636 
L 1184.399998 423.703636 
L 1204.690887 423.703636 
L 1224.981777 423.703636 
L 1245.272727 423.703636 
" clip-path="url(#p3c1b5093a0)" style="fill: none; stroke: #1f77b4; stroke-width: 1.5; stroke-linecap: square"/>
   </g>
   <g id="line2d_17">
    <path d="M 230.727273 423.703636 
L 251.018181 423.703636 
L 271.30909 423.703636 
L 291.599999 423.703636 
L 311.890907 423.703636 
L 332.181812 423.703636 
L 352.472725 423.703636 
L 372.763637 423.703636 
L 393.054542 423.703636 
L 413.345447 423.703636 
L 433.636352 423.703636 
L 453.927272 423.703636 
L 474.218176 423.703636 
L 494.509081 276.025335 
L 514.800001 147.609473 
L 535.090891 94.568167 
L 555.381811 80.731172 
L 575.672731 78.17439 
L 595.963621 77.818632 
L 616.254541 77.779951 
L 636.54543 77.776611 
L 656.83635 77.776364 
L 677.12727 77.776364 
L 697.41816 77.776364 
L 717.70908 77.776364 
L 738 225.454665 
L 758.29089 353.870527 
L 778.581779 406.911833 
L 798.87273 420.748828 
L 819.163619 423.30561 
L 839.454509 423.661368 
L 859.745459 423.700049 
L 880.036349 423.703389 
L 900.327239 423.703636 
L 920.618189 423.703636 
L 940.909079 423.703636 
L 961.199969 423.703636 
L 981.490919 423.703636 
L 1001.781809 423.703636 
L 1022.072698 423.703636 
L 1042.363588 423.703636 
L 1062.654538 423.703636 
L 1082.945428 423.703636 
L 1103.236318 423.703636 
L 1123.527268 423.703636 
L 1143.818158 423.703636 
L 1164.109047 423.703636 
L 1184.399998 423.703636 
L 1204.690887 423.703636 
L 1224.981777 423.703636 
L 1245.272727 423.703636 
" clip-path="url(#p3c1b5093a0)" style="fill: none; stroke: #ff7f0e; stroke-width: 1.5; stroke-linecap: square"/>
   </g>
   <g id="line2d_18">
    <path d="M 230.727273 423.703636 
L 251.018181 423.703636 
L 271.30909 423.703636 
L 291.599999 423.703636 
L 311.890907 423.703636 
L 332.181812 423.703636 
L 352.472725 423.703636 
L 372.763637 423.703636 
L 393.054542 423.703636 
L 413.345447 423.703636 
L 433.636352 423.703636 
L 453.927272 423.703636 
L 474.218176 423.703636 
L 494.509081 360.658919 
L 514.800001 251.016004 
L 535.090891 158.057881 
L 555.381811 106.863489 
L 575.672731 86.274391 
L 595.963621 79.829179 
L 616.254541 78.194514 
L 636.54543 77.849313 
L 656.83635 77.787333 
L 677.12727 77.777766 
L 697.41816 77.776487 
L 717.70908 77.776364 
L 738 140.821081 
L 758.29089 250.463996 
L 778.581779 343.422119 
L 798.87273 394.616511 
L 819.163619 415.205609 
L 839.454509 421.650821 
L 859.745459 423.285486 
L 880.036349 423.630687 
L 900.327239 423.692667 
L 920.618189 423.702234 
L 940.909079 423.703513 
L 961.199969 423.703636 
L 981.490919 423.703636 
L 1001.781809 423.703636 
L 1022.072698 423.703636 
L 1042.363588 423.703636 
L 1062.654538 423.703636 
L 1082.945428 423.703636 
L 1103.236318 423.703636 
L 1123.527268 423.703636 
L 1143.818158 423.703636 
L 1164.109047 423.703636 
L 1184.399998 423.703636 
L 1204.690887 423.703636 
L 1224.981777 423.703636 
L 1245.272727 423.703636 
" clip-path="url(#p3c1b5093a0)" style="fill: none; stroke: #2ca02c; stroke-width: 1.5; stroke-linecap: square"/>
   </g>
   <g id="line2d_19">
    <path d="M 230.727273 423.703636 
L 251.018181 423.703636 
L 271.30909 423.703636 
L 291.599999 423.703636 
L 311.890907 423.703636 
L 332.181812 423.703636 
L 352.472725 423.703636 
L 372.763637 423.703636 
L 393.054542 423.703636 
L 413.345447 423.703636 
L 433.636352 423.703636 
L 453.927272 423.703636 
L 474.218176 423.703636 
L 494.509081 396.789493 
L 514.800001 326.578769 
L 535.090891 236.525762 
L 555.381811 160.829098 
L 575.672731 113.929989 
L 595.963621 91.092155 
L 616.254541 81.990201 
L 636.54543 78.93733 
L 656.83635 78.057976 
L 677.12727 77.837066 
L 697.41816 77.788034 
L 717.70908 77.778343 
L 738 104.690879 
L 758.29089 174.901355 
L 778.581779 264.954238 
L 798.87273 340.650902 
L 819.163619 387.550011 
L 839.454509 410.387845 
L 859.745459 419.489799 
L 880.036349 422.54267 
L 900.327239 423.422024 
L 920.618189 423.642934 
L 940.909079 423.691966 
L 961.199969 423.701657 
L 981.490919 423.703389 
L 1001.781809 423.703636 
L 1022.072698 423.703636 
L 1042.363588 423.703636 
L 1062.654538 423.703636 
L 1082.945428 423.703636 
L 1103.236318 423.703636 
L 1123.527268 423.703636 
L 1143.818158 423.703636 
L 1164.109047 423.703636 
L 1184.399998 423.703636 
L 1204.690887 423.703636 
L 1224.981777 423.703636 
L 1245.272727 423.703636 
" clip-path="url(#p3c1b5093a0)" style="fill: none; stroke: #d62728; stroke-width: 1.5; stroke-linecap: square"/>
   </g>
   <g id="line2d_20">
    <path d="M 230.727273 423.703636 
L 251.018181 423.703636 
L 271.30909 423.703636 
L 291.599999 423.703636 
L 311.890907 423.703636 
L 332.181812 423.703636 
L 352.472725 423.703636 
L 372.763637 423.703636 
L 393.054542 423.703636 
L 413.345447 423.703636 
L 433.636352 423.703636 
L 453.927272 423.703636 
L 474.218176 423.703636 
L 494.509081 412.213894 
L 514.800001 372.249447 
L 535.090891 303.614706 
L 555.381811 226.027663 
L 575.672731 161.090669 
L 595.963621 118.175745 
L 616.254541 94.852378 
L 636.54543 84.132378 
L 656.83635 79.879282 
L 677.12727 78.399961 
L 697.41816 77.943294 
L 717.70908 77.816983 
L 738 89.275179 
L 758.29089 129.232532 
L 778.581779 197.865748 
L 798.87273 275.452502 
L 819.163619 340.389413 
L 839.454509 383.304297 
L 859.745459 406.627622 
L 880.036349 417.347622 
L 900.327239 421.600718 
L 920.618189 423.080039 
L 940.909079 423.536706 
L 961.199969 423.663017 
L 981.490919 423.694688 
L 1001.781809 423.701822 
L 1022.072698 423.703348 
L 1042.363588 423.703636 
L 1062.654538 423.703636 
L 1082.945428 423.703636 
L 1103.236318 423.703636 
L 1123.527268 423.703636 
L 1143.818158 423.703636 
L 1164.109047 423.703636 
L 1184.399998 423.703636 
L 1204.690887 423.703636 
L 1224.981777 423.703636 
L 1245.272727 423.703636 
" clip-path="url(#p3c1b5093a0)" style="fill: none; stroke: #9467bd; stroke-width: 1.5; stroke-linecap: square"/>
   </g>
   <g id="line2d_21">
    <path d="M 230.727273 423.703636 
L 251.018181 423.703636 
L 271.30909 423.703636 
L 291.599999 423.703636 
L 311.890907 423.703636 
L 332.181812 423.703636 
L 352.472725 423.703636 
L 372.763637 423.703636 
L 393.054542 423.703636 
L 413.345447 423.703636 
L 433.636352 423.703636 
L 453.927272 423.703636 
L 474.218176 423.703636 
L 494.509081 418.798572 
L 514.800001 397.472266 
L 535.090891 351.574285 
L 555.381811 286.385906 
L 575.672731 217.654587 
L 595.963621 160.278781 
L 616.254541 120.781022 
L 636.54543 97.720256 
L 656.83635 86.064408 
L 677.12727 80.88404 
L 697.41816 78.834483 
L 717.70908 78.1054 
L 738 82.775368 
L 758.29089 104.032477 
L 778.581779 149.911818 
L 798.87273 215.09562 
L 819.163619 283.825826 
L 839.454509 341.201343 
L 859.745459 380.699061 
L 880.036349 403.759744 
L 900.327239 415.415592 
L 920.618189 420.59596 
L 940.909079 422.645517 
L 961.199969 423.3746 
L 981.490919 423.609738 
L 1001.781809 423.678935 
L 1022.072698 423.697574 
L 1042.363588 423.702276 
L 1062.654538 423.703348 
L 1082.945428 423.703636 
L 1103.236318 423.703636 
L 1123.527268 423.703636 
L 1143.818158 423.703636 
L 1164.109047 423.703636 
L 1184.399998 423.703636 
L 1204.690887 423.703636 
L 1224.981777 423.703636 
L 1245.272727 423.703636 
" clip-path="url(#p3c1b5093a0)" style="fill: none; stroke: #8c564b; stroke-width: 1.5; stroke-linecap: square"/>
   </g>
   <g id="line2d_22">
    <path d="M 230.727273 423.703636 
L 251.018181 423.703636 
L 271.30909 423.703636 
L 291.599999 423.703636 
L 311.890907 423.703636 
L 332.181812 423.703636 
L 352.472725 423.703636 
L 372.763637 423.703636 
L 393.054542 423.703636 
L 413.345447 423.703636 
L 433.636352 423.703636 
L 453.927272 423.703636 
L 474.218176 423.703636 
L 494.509081 421.609625 
L 514.800001 410.684427 
L 535.090891 382.421479 
L 555.381811 334.087585 
L 575.672731 272.619634 
L 595.963621 210.617077 
L 616.254541 158.948162 
L 636.54543 122.36286 
L 656.83635 99.89464 
L 677.12727 87.737794 
L 697.41816 81.870901 
L 717.70908 79.320057 
L 738 80.406631 
L 758.29089 90.967988 
L 778.581779 119.110068 
L 798.87273 167.406766 
L 819.163619 228.864201 
L 839.454509 290.863995 
L 859.745459 342.532167 
L 880.036349 379.117263 
L 900.327239 401.58536 
L 920.618189 413.742206 
L 940.909079 419.609099 
L 961.199969 422.159943 
L 981.490919 423.167339 
L 1001.781809 423.531263 
L 1022.072698 423.652089 
L 1042.363588 423.689286 
L 1062.654538 423.699884 
L 1082.945428 423.702729 
L 1103.236318 423.703471 
L 1123.527268 423.703636 
L 1143.818158 423.703636 
L 1164.109047 423.703636 
L 1184.399998 423.703636 
L 1204.690887 423.703636 
L 1224.981777 423.703636 
L 1245.272727 423.703636 
" clip-path="url(#p3c1b5093a0)" style="fill: none; stroke: #e377c2; stroke-width: 1.5; stroke-linecap: square"/>
   </g>
   <g id="line2d_23">
    <path d="M 230.727273 423.703636 
L 251.018181 423.703636 
L 271.30909 423.703636 
L 291.599999 423.703636 
L 311.890907 423.703636 
L 332.181812 423.703636 
L 352.472725 423.703636 
L 372.763637 423.703636 
L 393.054542 423.703636 
L 413.345447 423.703636 
L 433.636352 423.703636 
L 453.927272 423.703636 
L 474.218176 423.703636 
L 494.509081 422.809726 
L 514.800001 417.368405 
L 535.090891 400.926009 
L 555.381811 368.041259 
L 575.672731 319.071479 
L 595.963621 261.1595 
L 616.254541 204.506344 
L 636.54543 157.354117 
L 656.83635 123.271287 
L 677.12727 101.53714 
L 697.41816 89.158105 
L 717.70908 82.797389 
L 738 80.718388 
L 758.29089 84.886988 
L 778.581779 100.827397 
L 798.87273 133.528887 
L 819.163619 182.436274 
L 839.454509 240.328665 
L 859.745459 296.975965 
L 880.036349 344.126584 
L 900.327239 378.20892 
L 920.618189 399.942943 
L 940.909079 412.321895 
L 961.199969 418.682611 
L 981.490919 421.655481 
L 1001.781809 422.928243 
L 1022.072698 423.430148 
L 1042.363588 423.613408 
L 1062.654538 423.675718 
L 1082.945428 423.695513 
L 1103.236318 423.701451 
L 1123.527268 423.7031 
L 1143.818158 423.703636 
L 1164.109047 423.703636 
L 1184.399998 423.703636 
L 1204.690887 423.703636 
L 1224.981777 423.703636 
L 1245.272727 423.703636 
" clip-path="url(#p3c1b5093a0)" style="fill: none; stroke: #7f7f7f; stroke-width: 1.5; stroke-linecap: square"/>
   </g>
   <g id="patch_3">
    <path d="M 180 441 
L 180 60.48 
" style="fill: none; stroke: #000000; stroke-width: 0.8; stroke-linejoin: miter; stroke-linecap: square"/>
   </g>
   <g id="patch_4">
    <path d="M 1296 441 
L 1296 60.48 
" style="fill: none; stroke: #000000; stroke-width: 0.8; stroke-linejoin: miter; stroke-linecap: square"/>
   </g>
   <g id="patch_5">
    <path d="M 180 441 
L 1296 441 
" style="fill: none; stroke: #000000; stroke-width: 0.8; stroke-linejoin: miter; stroke-linecap: square"/>
   </g>
   <g id="patch_6">
    <path d="M 180 60.48 
L 1296 60.48 
" style="fill: none; stroke: #000000; stroke-width: 0.8; stroke-linejoin: miter; stroke-linecap: square"/>
   </g>
   <g id="legend_1">
    <g id="patch_7">
     <path d="M 1216.071875 185.905 
L 1289 185.905 
Q 1291 185.905 1291 183.905 
L 1291 67.48 
Q 1291 65.48 1289 65.48 
L 1216.071875 65.48 
Q 1214.071875 65.48 1214.071875 67.48 
L 1214.071875 183.905 
Q 1214.071875 185.905 1216.071875 185.905 
z
" style="fill: #ffffff; opacity: 0.8; stroke: #cccccc; stroke-linejoin: miter"/>
    </g>
    <g id="line2d_24">
     <path d="M 1218.071875 73.578438 
L 1228.071875 73.578438 
L 1238.071875 73.578438 
" style="fill: none; stroke: #1f77b4; stroke-width: 1.5; stroke-linecap: square"/>
    </g>
    <g id="text_18">
     <!-- t=0.000 -->
     <g transform="translate(1246.071875 77.078438)scale(0.1 -0.1)">
      <defs>
       <path id="DejaVuSans-74" d="M 1172 4494 
L 1172 3500 
L 2356 3500 
L 2356 3053 
L 1172 3053 
L 1172 1153 
Q 1172 725 1289 603 
Q 1406 481 1766 481 
L 2356 481 
L 2356 0 
L 1766 0 
Q 1100 0 847 248 
Q 594 497 594 1153 
L 594 3053 
L 172 3053 
L 172 3500 
L 594 3500 
L 594 4494 
L 1172 4494 
z
" transform="scale(0.015625)"/>
       <path id="DejaVuSans-3d" d="M 678 2906 
L 4684 2906 
L 4684 2381 
L 678 2381 
L 678 2906 
z
M 678 1631 
L 4684 1631 
L 4684 1100 
L 678 1100 
L 678 1631 
z
" transform="scale(0.015625)"/>
      </defs>
      <use xlink:href="#DejaVuSans-74"/>
      <use xlink:href="#DejaVuSans-3d" x="39.208984"/>
      <use xlink:href="#DejaVuSans-30" x="122.998047"/>
      <use xlink:href="#DejaVuSans-2e" x="186.621094"/>
      <use xlink:href="#DejaVuSans-30" x="218.408203"/>
      <use xlink:href="#DejaVuSans-30" x="282.03125"/>
      <use xlink:href="#DejaVuSans-30" x="345.654297"/>
     </g>
    </g>
    <g id="line2d_25">
     <path d="M 1218.071875 88.256563 
L 1228.071875 88.256563 
L 1238.071875 88.256563 
" style="fill: none; stroke: #ff7f0e; stroke-width: 1.5; stroke-linecap: square"/>
    </g>
    <g id="text_19">
     <!-- t=0.067 -->
     <g transform="translate(1246.071875 91.756563)scale(0.1 -0.1)">
      <use xlink:href="#DejaVuSans-74"/>
      <use xlink:href="#DejaVuSans-3d" x="39.208984"/>
      <use xlink:href="#DejaVuSans-30" x="122.998047"/>
      <use xlink:href="#DejaVuSans-2e" x="186.621094"/>
      <use xlink:href="#DejaVuSans-30" x="218.408203"/>
      <use xlink:href="#DejaVuSans-36" x="282.03125"/>
      <use xlink:href="#DejaVuSans-37" x="345.654297"/>
     </g>
    </g>
    <g id="line2d_26">
     <path d="M 1218.071875 102.934687 
L 1228.071875 102.934687 
L 1238.071875 102.934687 
" style="fill: none; stroke: #2ca02c; stroke-width: 1.5; stroke-linecap: square"/>
    </g>
    <g id="text_20">
     <!-- t=0.133 -->
     <g transform="translate(1246.071875 106.434687)scale(0.1 -0.1)">
      <defs>
       <path id="DejaVuSans-33" d="M 2597 2516 
Q 3050 2419 3304 2112 
Q 3559 1806 3559 1356 
Q 3559 666 3084 287 
Q 2609 -91 1734 -91 
Q 1441 -91 1130 -33 
Q 819 25 488 141 
L 488 750 
Q 750 597 1062 519 
Q 1375 441 1716 441 
Q 2309 441 2620 675 
Q 2931 909 2931 1356 
Q 2931 1769 2642 2001 
Q 2353 2234 1838 2234 
L 1294 2234 
L 1294 2753 
L 1863 2753 
Q 2328 2753 2575 2939 
Q 2822 3125 2822 3475 
Q 2822 3834 2567 4026 
Q 2313 4219 1838 4219 
Q 1578 4219 1281 4162 
Q 984 4106 628 3988 
L 628 4550 
Q 988 4650 1302 4700 
Q 1616 4750 1894 4750 
Q 2613 4750 3031 4423 
Q 3450 4097 3450 3541 
Q 3450 3153 3228 2886 
Q 3006 2619 2597 2516 
z
" transform="scale(0.015625)"/>
      </defs>
      <use xlink:href="#DejaVuSans-74"/>
      <use xlink:href="#DejaVuSans-3d" x="39.208984"/>
      <use xlink:href="#DejaVuSans-30" x="122.998047"/>
      <use xlink:href="#DejaVuSans-2e" x="186.621094"/>
      <use xlink:href="#DejaVuSans-31" x="218.408203"/>
      <use xlink:href="#DejaVuSans-33" x="282.03125"/>
      <use xlink:href="#DejaVuSans-33" x="345.654297"/>
     </g>
    </g>
    <g id="line2d_27">
     <path d="M 1218.071875 117.612813 
L 1228.071875 117.612813 
L 1238.071875 117.612813 
" style="fill: none; stroke: #d62728; stroke-width: 1.5; stroke-linecap: square"/>
    </g>
    <g id="text_21">
     <!-- t=0.200 -->
     <g transform="translate(1246.071875 121.112813)scale(0.1 -0.1)">
      <use xlink:href="#DejaVuSans-74"/>
      <use xlink:href="#DejaVuSans-3d" x="39.208984"/>
      <use xlink:href="#DejaVuSans-30" x="122.998047"/>
      <use xlink:href="#DejaVuSans-2e" x="186.621094"/>
      <use xlink:href="#DejaVuSans-32" x="218.408203"/>
      <use xlink:href="#DejaVuSans-30" x="282.03125"/>
      <use xlink:href="#DejaVuSans-30" x="345.654297"/>
     </g>
    </g>
    <g id="line2d_28">
     <path d="M 1218.071875 132.290938 
L 1228.071875 132.290938 
L 1238.071875 132.290938 
" style="fill: none; stroke: #9467bd; stroke-width: 1.5; stroke-linecap: square"/>
    </g>
    <g id="text_22">
     <!-- t=0.267 -->
     <g transform="translate(1246.071875 135.790938)scale(0.1 -0.1)">
      <use xlink:href="#DejaVuSans-74"/>
      <use xlink:href="#DejaVuSans-3d" x="39.208984"/>
      <use xlink:href="#DejaVuSans-30" x="122.998047"/>
      <use xlink:href="#DejaVuSans-2e" x="186.621094"/>
      <use xlink:href="#DejaVuSans-32" x="218.408203"/>
      <use xlink:href="#DejaVuSans-36" x="282.03125"/>
      <use xlink:href="#DejaVuSans-37" x="345.654297"/>
     </g>
    </g>
    <g id="line2d_29">
     <path d="M 1218.071875 146.969063 
L 1228.071875 146.969063 
L 1238.071875 146.969063 
" style="fill: none; stroke: #8c564b; stroke-width: 1.5; stroke-linecap: square"/>
    </g>
    <g id="text_23">
     <!-- t=0.333 -->
     <g transform="translate(1246.071875 150.469063)scale(0.1 -0.1)">
      <use xlink:href="#DejaVuSans-74"/>
      <use xlink:href="#DejaVuSans-3d" x="39.208984"/>
      <use xlink:href="#DejaVuSans-30" x="122.998047"/>
      <use xlink:href="#DejaVuSans-2e" x="186.621094"/>
      <use xlink:href="#DejaVuSans-33" x="218.408203"/>
      <use xlink:href="#DejaVuSans-33" x="282.03125"/>
      <use xlink:href="#DejaVuSans-33" x="345.654297"/>
     </g>
    </g>
    <g id="line2d_30">
     <path d="M 1218.071875 161.647187 
L 1228.071875 161.647187 
L 1238.071875 161.647187 
" style="fill: none; stroke: #e377c2; stroke-width: 1.5; stroke-linecap: square"/>
    </g>
    <g id="text_24">
     <!-- t=0.400 -->
     <g transform="translate(1246.071875 165.147187)scale(0.1 -0.1)">
      <use xlink:href="#DejaVuSans-74"/>
      <use xlink:href="#DejaVuSans-3d" x="39.208984"/>
      <use xlink:href="#DejaVuSans-30" x="122.998047"/>
      <use xlink:href="#DejaVuSans-2e" x="186.621094"/>
      <use xlink:href="#DejaVuSans-34" x="218.408203"/>
      <use xlink:href="#DejaVuSans-30" x="282.03125"/>
      <use xlink:href="#DejaVuSans-30" x="345.654297"/>
     </g>
    </g>
    <g id="line2d_31">
     <path d="M 1218.071875 176.325312 
L 1228.071875 176.325312 
L 1238.071875 176.325312 
" style="fill: none; stroke: #7f7f7f; stroke-width: 1.5; stroke-linecap: square"/>
    </g>
    <g id="text_25">
     <!-- t=0.467 -->
     <g transform="translate(1246.071875 179.825312)scale(0.1 -0.1)">
      <use xlink:href="#DejaVuSans-74"/>
      <use xlink:href="#DejaVuSans-3d" x="39.208984"/>
      <use xlink:href="#DejaVuSans-30" x="122.998047"/>
      <use xlink:href="#DejaVuSans-2e" x="186.621094"/>
      <use xlink:href="#DejaVuSans-34" x="218.408203"/>
      <use xlink:href="#DejaVuSans-36" x="282.03125"/>
      <use xlink:href="#DejaVuSans-37" x="345.654297"/>
     </g>
    </g>
   </g>
  </g>
 </g>
 <defs>
  <clipPath id="p3c1b5093a0">
   <rect x="180" y="60.48" width="1116" height="380.52"/>
  </clipPath>
 </defs>
</svg>
